<svg id="Capa_1" enable-background="new 0 0 512 512" height="512" viewBox="0 0 512 512" width="512" xmlns="http://www.w3.org/2000/svg"><g><g><g><g fill="#57697d"><path d="m158.854 259.356c-7.961 4.661-17.845 4.671-25.824 0-1.23.72-2.386 1.549-3.475 2.457-2.49 4.728-5.322 9.247-8.464 13.524-.956 3.888-.752 5.485-.752 17.093 0 14.14 11.463 25.603 25.603 25.603s25.603-11.463 25.603-25.603v-10.969c0-9.429-5.101-17.662-12.691-22.105z"/><path d="m158.854 204.201c-7.961 4.661-17.845 4.671-25.824 0-1.23.72-2.386 1.549-3.475 2.457-2.49 4.728-5.322 9.247-8.464 13.524-.956 3.888-.752 5.485-.752 17.093 0 14.14 11.463 25.603 25.603 25.603s25.603-11.463 25.603-25.603v-10.969c0-9.429-5.101-17.662-12.691-22.105z"/><path d="m171.545 347.61v-10.969c0-9.363-5.042-17.627-12.691-22.105-7.95 4.654-17.872 4.656-25.824 0-7.467 4.371-12.691 12.521-12.691 22.398-.023 1.273-.013 10.576.004 10.851.094 14.059 11.517 25.428 25.598 25.428 14.187-.001 25.604-11.524 25.604-25.603z"/><path d="m158.854 259.356c-7.961 4.661-17.845 4.671-25.824 0-1.23.72-2.386 1.549-3.475 2.457-2.49 4.728-5.322 9.247-8.464 13.524-.956 3.888-.752 5.485-.752 17.093 0 14.14 11.463 25.603 25.603 25.603s25.603-11.463 25.603-25.603v-10.969c0-9.429-5.101-17.662-12.691-22.105z"/><path d="m158.854 204.201c-7.961 4.661-17.845 4.671-25.824 0-1.23.72-2.386 1.549-3.475 2.457-2.49 4.728-5.322 9.247-8.464 13.524-.956 3.888-.752 5.485-.752 17.093 0 14.14 11.463 25.603 25.603 25.603s25.603-11.463 25.603-25.603v-10.969c0-9.429-5.101-17.662-12.691-22.105z"/><path d="m171.545 347.61v-10.969c0-9.363-5.042-17.627-12.691-22.105-7.95 4.654-17.872 4.656-25.824 0-7.467 4.371-12.691 12.521-12.691 22.398-.023 1.273-.013 10.576.004 10.851.094 14.059 11.517 25.428 25.598 25.428 14.187-.001 25.604-11.524 25.604-25.603z"/><path d="m155.545 292.43v-10.969c0-11.758-7.392-17.656-8.083-18.656-4.961.295-9.991-.85-14.432-3.449-1.23.72-2.386 1.549-3.474 2.457-2.49 4.728-5.322 9.247-8.464 13.524-.956 3.888-.752 5.485-.752 17.093 0 11.222 7.223 20.75 17.27 24.208 6.955-1.236 17.935-10.24 17.935-24.208z"/><path d="m147.486 207.685-.031-.035c-4.959.293-9.987-.851-14.425-3.45-1.23.72-2.386 1.549-3.474 2.457-2.49 4.728-5.322 9.247-8.464 13.524-.956 3.888-.752 5.485-.752 17.093 0 11.323 7.353 20.922 17.542 24.3 9.877-3.063 17.663-12.649 17.663-24.3v-10.969c0-7.344-3.104-13.953-8.059-18.62z"/><path d="m138.944 371.581c9.717-3.653 16.601-13.04 16.601-23.971s1.404-20.686-8.067-29.599l-.031-.034c-4.963.291-9.995-.853-14.417-3.442-7.467 4.371-12.691 12.521-12.691 22.398-.023 1.273-.013 10.576.004 10.851.076 11.316 7.494 20.885 17.727 24.189z"/></g><g><g><path d="m158.854 204.201c-4.118 2.411-8.751 3.566-13.368 3.484 9.46 8.911 8.058 18.701 8.058 29.59 0 10.972-6.904 20.328-16.603 23.971 16.714 6.277 34.603-6.101 34.603-23.971v-10.969c.001-9.429-5.1-17.662-12.69-22.105z" fill="#3d5168"/></g></g><g><g><path d="m158.854 259.356c-4.118 2.411-8.751 3.566-13.368 3.484 9.46 8.911 8.058 18.701 8.058 29.59 0 10.972-6.904 20.328-16.603 23.971 16.713 6.279 34.603-6.101 34.603-23.971v-10.969c.001-9.429-5.1-17.662-12.69-22.105z" fill="#3d5168"/></g></g><g><g><path d="m158.854 314.535c-4.113 2.407-8.753 3.559-13.376 3.476 9.351 8.8 8.067 18.337 8.067 29.599 0 10.931-6.884 20.318-16.601 23.971 16.741 6.29 34.601-6.141 34.601-23.971v-10.969c0-9.363-5.042-17.628-12.691-22.106z" fill="#3d5168"/></g></g></g><g><g fill="#57697d"><path d="m379.588 259.356c-7.962 4.661-17.845 4.671-25.824 0-1.23.72-2.386 1.549-3.475 2.457-2.49 4.728-5.322 9.247-8.464 13.524-.956 3.888-.752 5.485-.752 17.093 0 14.14 11.463 25.603 25.603 25.603s25.603-11.463 25.603-25.603v-10.969c0-9.429-5.101-17.662-12.691-22.105z"/><path d="m379.588 204.201c-7.962 4.661-17.845 4.671-25.824 0-1.23.72-2.386 1.549-3.475 2.457-2.49 4.728-5.322 9.247-8.464 13.524-.956 3.888-.752 5.485-.752 17.093 0 14.14 11.463 25.603 25.603 25.603s25.603-11.463 25.603-25.603v-10.969c0-9.429-5.101-17.662-12.691-22.105z"/><path d="m392.279 347.61v-10.969c0-9.363-5.042-17.627-12.691-22.105-7.95 4.654-17.872 4.656-25.824 0-7.467 4.371-12.691 12.521-12.691 22.398-.023 1.273-.013 10.576.004 10.851.094 14.059 11.517 25.428 25.598 25.428 14.187-.001 25.604-11.524 25.604-25.603z"/><path d="m379.588 259.356c-7.962 4.661-17.845 4.671-25.824 0-1.23.72-2.386 1.549-3.475 2.457-2.49 4.728-5.322 9.247-8.464 13.524-.956 3.888-.752 5.485-.752 17.093 0 14.14 11.463 25.603 25.603 25.603s25.603-11.463 25.603-25.603v-10.969c0-9.429-5.101-17.662-12.691-22.105z"/><path d="m379.588 204.201c-7.962 4.661-17.845 4.671-25.824 0-1.23.72-2.386 1.549-3.475 2.457-2.49 4.728-5.322 9.247-8.464 13.524-.956 3.888-.752 5.485-.752 17.093 0 14.14 11.463 25.603 25.603 25.603s25.603-11.463 25.603-25.603v-10.969c0-9.429-5.101-17.662-12.691-22.105z"/><path d="m392.279 347.61v-10.969c0-9.363-5.042-17.627-12.691-22.105-7.95 4.654-17.872 4.656-25.824 0-7.467 4.371-12.691 12.521-12.691 22.398-.023 1.273-.013 10.576.004 10.851.094 14.059 11.517 25.428 25.598 25.428 14.187-.001 25.604-11.524 25.604-25.603z"/><path d="m376.279 292.43v-10.969c0-11.758-7.392-17.656-8.083-18.656-4.961.295-9.991-.85-14.432-3.449-1.23.72-2.386 1.549-3.474 2.457-2.49 4.728-5.322 9.247-8.464 13.524-.956 3.888-.752 5.485-.752 17.093 0 11.222 7.223 20.75 17.27 24.208 6.955-1.236 17.935-10.24 17.935-24.208z"/><path d="m368.221 207.685-.031-.035c-4.959.293-9.987-.851-14.425-3.45-1.23.72-2.386 1.549-3.474 2.457-2.49 4.728-5.322 9.247-8.464 13.524-.956 3.888-.752 5.485-.752 17.093 0 11.323 7.353 20.922 17.542 24.3 9.877-3.063 17.663-12.649 17.663-24.3v-10.969c-.001-7.344-3.104-13.953-8.059-18.62z"/><path d="m359.678 371.581c9.717-3.653 16.601-13.04 16.601-23.971 0-14.451 1.09-19.497-8.098-29.633-4.963.291-9.995-.853-14.417-3.442-7.467 4.371-12.691 12.521-12.691 22.398-.023 1.273-.013 10.576.004 10.851.076 11.316 7.494 20.885 17.727 24.189z"/></g><g><g><path d="m379.588 204.201c-4.118 2.411-8.751 3.566-13.368 3.484 4.955 4.667 8.058 11.276 8.058 18.621v10.969c0 10.972-6.904 20.328-16.603 23.971 16.714 6.277 34.603-6.101 34.603-23.971v-10.969c.001-9.429-5.1-17.662-12.69-22.105z" fill="#3d5168"/></g></g><g><g><path d="m379.588 259.356c-4.118 2.411-8.751 3.566-13.368 3.484 9.46 8.911 8.058 18.701 8.058 29.59 0 10.972-6.904 20.328-16.603 23.971 16.713 6.279 34.603-6.101 34.603-23.971v-10.969c.001-9.429-5.1-17.662-12.69-22.105z" fill="#3d5168"/></g></g><g><g><path d="m379.588 314.535c-4.113 2.407-8.753 3.559-13.376 3.476 9.351 8.8 8.067 18.337 8.067 29.599 0 10.931-6.884 20.318-16.601 23.971 16.741 6.29 34.601-6.141 34.601-23.971v-10.969c0-9.363-5.042-17.628-12.691-22.106z" fill="#3d5168"/></g></g></g><path d="m352.152 348.02c-9.138 0-11.094 0-19.563 0l-38.572 47.385v33.164h-77.143v-33.164l-38.572-47.385h-19.563c-26.299 0-49.453 20.866-49.453 50.145v78.682h292.318c0-1.985 0-78.567 0-79.374.001-27.313-22.14-49.453-49.452-49.453z" fill="#eaf6ff"/><path d="m352.152 348.02c-9.138 0-11.094 0-19.563 0l-38.572 47.385v33.164h-77.143v-33.164l-38.572-47.385h-19.563c-26.299 0-49.453 20.866-49.453 50.145v78.682h292.318c0-1.985 0-78.567 0-79.374.001-27.313-22.14-49.453-49.452-49.453z" fill="#eaf6ff"/><g><path d="m352.152 348.02c-9.138 0-11.094 0-19.563 0l-.049.06c26.203 1.246 47.065 22.881 47.065 49.393v79.374h22c0-1.985 0-78.567 0-79.374 0-27.313-22.141-49.453-49.453-49.453z" fill="#d8ecfe"/></g><path d="m210.562 287.447v35.847l40.759 59.54c1.986 2.901 6.266 2.901 8.252 0l40.759-59.54v-35.847z" fill="#ffa78f"/><path d="m148.022 162.606h-20.927c-9.708 6.539-16.094 17.632-16.094 30.217v.224c0 18.635 14.328 36.409 37.84 36.409h22.694v-66.85z" fill="#ffb09e"/><path d="m383.2 162.606h-21.227-28.829v66.85h28.011c23.593 0 38.14-17.498 38.14-36.409v-.224c-.001-12.585-6.387-23.678-16.095-30.217z" fill="#f89580"/><path d="m346.589 86.067h-198.567v76.539h-.024c-.769 7.335-.593 7.852-.593 49.314 0 61.143 51.176 106.768 101.849 106.768 54.581-4.994 97.334-50.885 97.334-106.768.001-5.577.001-120.455.001-125.853z" fill="#ffcebf"/><path d="m251.321 382.834-40.758-59.54-32.259 24.727 38.571 47.384v33.163 48.28h38.572 38.571v-81.443l38.572-47.384-32.259-24.727-40.759 59.54c-1.985 2.9-6.266 2.9-8.251 0z" fill="#d8ecfe"/><path d="m479.098 476.79v-71.99c0-5.425-4.325-9.856-9.748-9.997-39.992-1.04-190.479-1.063-213.903 56.306v25.681z" fill="#fff3be"/><path d="m478.266 502.471h-222.82v-51.362h222.82c14.183 0 25.68 11.497 25.68 25.68v.002c0 14.183-11.497 25.68-25.68 25.68z" fill="#fd8087"/><path d="m342.589 109.713v102.208c0 55.887-42.758 101.78-97.344 106.769 64.323 5.754 117.344-44.625 117.344-106.769 0-11.198 0-91.964 0-102.208-9.464 0-10.545 0-20 0z" fill="#ffb09e"/><path d="m247.942 9.997c-57.664 0-120.847 52.573-120.847 127.285v25.324h63.031c36.076 0 65.321-29.245 65.321-65.321 0 36.076 29.245 65.321 65.321 65.321h44.432v-25.324c0-65.671-50.07-121.686-117.258-127.285z" fill="#57697d"/><g><g><path d="m243.942 9.997c67.188 5.599 117.258 61.614 117.258 127.285v25.324h22v-25.324c0-73.907-62.904-133.739-139.258-127.285z" fill="#3d5168"/></g></g><g><g><path d="m300.331 323.293-7.571 11.06 17.83 13.667-38.572 47.384v81.443h22v-81.443l38.572-47.384z" fill="#c4e2ff"/></g></g><path d="m140.184 353.229c-29.429-109.831-26.94-103.167-29.982-105.669l-8.328 2.232c-4.606 1.234-7.339 5.969-6.105 10.574l26.191 97.746z" fill="#5de1c4"/><path d="m137.125 357.799 17.058-4.571-27.129-101.246c-1.234-4.606-5.969-7.339-10.574-6.105l-9.396 2.518c2.056 2.246-.146-4.311 29.099 104.834z" fill="#0ed2b3"/><path d="m158.625 379.477v-44.596c0-11.046-8.954-20-20-20h-28.596c-11.046 0-20 8.954-20 20v44.596c0 11.046 8.954 20 20 20h28.596c11.045 0 20-8.955 20-20z" fill="#ffcebf"/><path d="m154.625 314.881h-20c11.046 0 20 8.954 20 20v44.596c0 11.046-8.954 20-20 20h20c11.046 0 20-8.954 20-20v-44.596c0-11.046-8.955-20-20-20z" fill="#ffb09e"/><path d="m449.35 394.803c-9.106-.237-12.14-.216 2.61-.231-54.901-.085-175.728 5.63-196.513 56.537v25.681h203.651v-71.99c0-5.425-4.325-9.856-9.748-9.997z" fill="#ffe177"/><path d="m469.35 394.803c-6.264-.163-45.968-.624-22 0 5.423.141 9.748 4.572 9.748 9.997v71.99h22v-71.99c0-5.425-4.325-9.856-9.748-9.997z" fill="#ffd15b"/><path d="m458.266 502.471c14.177 0 25.68-11.491 25.68-25.682 0-14.183-11.497-25.68-25.68-25.68h-202.82v51.362h222.822z" fill="#fe646f"/><path d="m478.266 451.109h-22c14.177 0 25.68 11.491 25.68 25.682 0 14.183-11.497 25.68-25.68 25.68h22c14.183 0 25.68-11.497 25.68-25.68v-.002c0-14.183-11.497-25.68-25.68-25.68z" fill="#fd4755"/><path d="m31.795 476.847v-71.99c0-5.425 4.325-9.856 9.748-9.997 39.992-1.04 190.479-1.063 213.903 56.306v25.681z" fill="#fff0ad"/><path d="m255.446 502.471h-222.82c-14.183 0-25.68-11.497-25.68-25.68v-.002c0-14.183 11.497-25.68 25.68-25.68h222.82z" fill="#fd8087"/><g fill="#fe8f83"><path d="m314.186 265.757h9.13c4.231 0 7.92-3.26 8.047-7.489.131-4.376-3.377-7.964-7.723-7.964h-9.454c-4.267 0-7.726 3.459-7.726 7.726 0 4.267 3.459 7.727 7.726 7.727z"/><path d="m195.484 265.757h-9.13c-4.231 0-7.92-3.26-8.047-7.489-.131-4.376 3.377-7.964 7.723-7.964h9.454c4.267 0 7.726 3.459 7.726 7.726.001 4.267-3.459 7.727-7.726 7.727z"/></g></g><g><path d="m255.536 294.947c16.737 0 30.353-13.616 30.353-30.353 0-4.142-3.358-7.5-7.5-7.5s-7.5 3.358-7.5 7.5c0 8.466-6.887 15.353-15.353 15.353s-15.353-6.887-15.353-15.353c0-4.142-3.358-7.5-7.5-7.5s-7.5 3.358-7.5 7.5c0 16.737 13.616 30.353 30.353 30.353z"/><path d="m308.06 247.784c4.142 0 7.5-3.358 7.5-7.5v-12.315h.616c4.142 0 7.5-3.358 7.5-7.5s-3.358-7.5-7.5-7.5h-8.116c-4.142 0-7.5 3.358-7.5 7.5v19.815c0 4.142 3.357 7.5 7.5 7.5z"/><path d="m194.896 227.969h.616v12.315c0 4.142 3.358 7.5 7.5 7.5s7.5-3.358 7.5-7.5v-19.815c0-4.142-3.358-7.5-7.5-7.5h-8.116c-4.142 0-7.5 3.358-7.5 7.5s3.357 7.5 7.5 7.5z"/><path d="m487.151 444.669v-39.869c0-9.561-7.491-17.245-17.053-17.494-11.592-.302-34.495-.553-61.207.951-1.572-9.696-5.616-18.757-11.788-26.425 2.11-4.413 3.229-9.233 3.229-14.222v-10.969c0-8.239-3.124-16.095-8.496-22.096 5.278-5.867 8.496-13.621 8.496-22.115v-10.969c0-8.237-3.123-16.093-8.493-22.093 5.384-5.967 8.493-13.782 8.493-22.117 0-11.601.246-14.004-.966-18.903 5.261-7.546 7.981-16.535 7.981-25.3v-.224c0-13.243-5.957-25.644-16.094-33.949v-21.592c0-74.224-59.686-135.253-135.852-135.253-34.401 0-67.183 12.926-92.309 36.396-3.027 2.828-3.188 7.574-.361 10.601 2.828 3.027 7.574 3.189 10.601.361 22.338-20.866 51.484-32.358 82.069-32.358 67.665 0 120.852 54.051 120.852 120.253v17.824c-8.725 0-50.081 0-54.933 0-31.882 0-57.821-25.938-57.821-57.821 0-4.142-3.358-7.5-7.5-7.5s-7.5 3.358-7.5 7.5c0 31.883-25.938 57.821-57.821 57.821-4.937 0-48.454 0-55.53 0v-17.824c0-22.081 6.033-43.666 17.449-62.423 2.153-3.538 1.031-8.152-2.508-10.306-3.537-2.153-8.152-1.03-10.306 2.508-12.846 21.107-19.636 45.39-19.635 70.221v21.592c-10.137 8.306-16.094 20.707-16.094 33.95v.224c0 10.045 3.545 19.937 9.81 27.673-.592 3.486-.47 5.144-.501 10.271-.019 3.26-.031 5.817.092 8.081l-12.97 3.475c-8.593 2.303-13.711 11.167-11.408 19.76l12.486 46.601c-10.746 3.742-18.481 13.968-18.481 25.973v44.596c0 2.744.42 5.446 1.214 8.023-18.429-.564-33.642-.364-42.395-.136-9.562.249-17.053 7.933-17.053 17.494v39.812c-14.275 3.703-24.848 16.699-24.848 32.119 0 18.295 14.885 33.18 33.18 33.18h378.64c4.142 0 7.5-3.358 7.5-7.5s-3.358-7.5-7.5-7.5h-148.32v-36.362h215.32c10.024 0 18.18 8.156 18.18 18.182 0 10.024-8.156 18.18-18.18 18.18h-32c-4.142 0-7.5 3.358-7.5 7.5s3.358 7.5 7.5 7.5h32c18.295 0 33.18-14.885 33.18-33.182 0-15.419-10.573-28.414-24.849-32.12zm-185.08-38.117c0-3.019 0-5.24 0-8.481l34.638-42.551c16.728 0 31.672-1.871 45.843 12.479 6.239 6.315 9.784 13.458 11.302 21.263-29.512 2.341-63.82 7.189-91.783 17.29zm-38.571 21.636c0-60.744.002 23.745 0-37.006l39.103-57.121 19.848 15.214-33.696 41.395c-1.089 1.338-1.684 3.01-1.684 4.735v17.366c-8.29 3.986-16.731 9.157-23.571 15.417zm-38.571-15.359c0-1.632 0-4.583 0-17.425 0-1.725-.595-3.397-1.684-4.735-6.95-8.538-26.776-32.895-33.696-41.395l19.848-15.214 39.103 57.121c0 3.342.001 33.712-.001 37.064-6.766-6.186-15.171-11.377-23.57-15.416zm-69.751-105.448h-4.961l-10.085-37.636c5.06.981 10.568.738 15.526-.696 2.65 4.604 5.629 9.038 8.928 13.274.002.859.001.568-.001 10.108 0 6.069-3.002 11.64-7.957 14.989-.48-.025-.963-.039-1.45-.039zm-19.926-55.936c-1.106-4.13-2.713-7.575-6.46-10.274-.417-1.946-.457-4.163-.436-8.828 4.502 2.219 9.43 3.642 14.76 4.259 1.392 6.367 3.32 12.582 5.765 18.587-4.882.659-9.869-.758-13.629-3.744zm43.876 46.386c7.469 6.629 15.692 12.189 24.487 16.6v5.162l-20.938 16.049c0-9.557-3.945-17.174-10.487-22.342 3.6-4.426 5.999-9.745 6.938-15.469zm76.788 28.816c13.071 0 25.636-2.203 37.35-6.247.039-.013.079-.024.118-.038v.609l-37.384 54.612-37.384-54.611v-.296c11.236 3.748 24.036 5.971 37.3 5.971zm123.456-3.421c3.742 3.4 5.961 8.275 5.961 13.415 0 12.007.071 12.023-.237 13.911-11.483-8.058-23.207-10.017-35.969-10.079v-3.832c0-5.14 2.219-10.015 5.961-13.415 7.495 2.955 16.229 3.177 24.284 0zm5.961-30.796c0 10.029-8.194 18.103-18.103 18.103-9.902 0-18.103-8.07-18.103-18.103 0-9.303-.116-11.866.247-13.966 2.322-3.257 4.484-6.651 6.456-10.136 7.576 2.78 16.027 2.682 23.542-.282 3.742 3.4 5.961 8.275 5.961 13.415zm-9.726-39.16c-4.266 2.225-8.916 2.62-13.234 1.416.015-.037.028-.075.043-.113 2.38-5.922 4.153-11.726 5.471-17.631.024-.108.054-.215.078-.323 6.407-.71 12.208-2.543 17.368-5.483 0 5.925 1.258 16.403-9.726 22.134zm-41.322 42.356c.697 7.236 3.731 13.797 8.339 18.919-5.372 6.001-8.496 13.857-8.496 22.096v2.684l-25.743-19.732v-5.665c9.476-4.895 18.184-11.074 25.9-18.302zm-151.607 83.851v-14.882l27.25 33.476v8.496c-11.68-4.256-23.417-7.264-33.716-9.394 4.134-4.904 6.466-11.162 6.466-17.696zm198.64-209.371c6.944 5.469 11.029 13.81 11.029 22.717v.224c0 11.844-7.67 24.316-22.058 27.896.232-2.973.354-6.498.354-9.022 0-40.676.024-39.217-.069-41.814h10.744zm-125.318-40.648c11.9 24.061 36.71 40.647 65.321 40.647h34.235c.123 3.024.087.303.087 41.814 0 14.614-3.191 29.273-9.741 42.967-16.327 34.057-51.488 57.828-93.153 56.706-54.032-1.67-97.289-45.845-97.289-99.672 0-27.463-.076-36.612.086-41.814h35.134c28.609 0 53.42-16.587 65.32-40.648zm-136.946 63.365c0-8.908 4.085-17.248 11.029-22.717h10.449c-.101 4.02-.096 10.245-.084 22.769.016 17.264-.132 21.643.363 28.047-14.192-3.608-21.757-16.054-21.757-27.874zm-14.686 64.213 14.607-3.914c.406-.109.817.029 1.086.29.123.143.241.387.395.857l14.231 53.112h-18.003l-13.118-48.957c-.162-.609.198-1.227.802-1.388zm-2.695 131.185c-2.302-2.324-3.59-5.419-3.59-8.744v-44.596c0-6.497 5.086-12.5 12.847-12.5 47.253 0 44.553-.082 46.201.176.034.005.068.003.102.008 5.917.984 10.446 6.125 10.446 12.316v44.596c0 6.893-5.607 12.5-12.5 12.5-20.681 0-18.856-1.906-53.506-3.756zm-61.824 16.636c0-1.366 1.073-2.463 2.443-2.499 51.476-1.341 166.648 2.199 200.275 41.251h-202.718zm-24.849 71.932c0-10.024 8.156-18.18 18.18-18.18h215.32v36.362h-215.32c-10.024 0-18.18-8.156-18.18-18.182zm254.381-33.18c33.584-39.137 148.695-42.654 200.327-41.308 1.37.036 2.443 1.133 2.443 2.499v38.809z"/></g></g></svg>