<?xml version="1.0" encoding="iso-8859-1"?>
<!-- Generator: Adobe Illustrator 19.0.0, SVG Export Plug-In . SVG Version: 6.00 Build 0)  -->
<svg version="1.1" id="Capa_1" xmlns="http://www.w3.org/2000/svg" xmlns:xlink="http://www.w3.org/1999/xlink" x="0px" y="0px"
	 viewBox="0 0 464 464" style="enable-background:new 0 0 464 464;" xml:space="preserve">
<path style="fill:#E9686A;" d="M160,56h-56V0H56v56H0v48h56v56h48v-56h56V56z"/>
<path style="fill:#32B1CC;" d="M464,56v48H304V56H464z"/>
<g>
	<path style="fill:#55B56A;" d="M464,344v48H304v-48H464z"/>
	<circle style="fill:#55B56A;" cx="384" cy="296" r="24"/>
	<circle style="fill:#55B56A;" cx="384" cy="440" r="24"/>
</g>
<path style="fill:#195C85;" d="M384,224H240V80h-16v144H80v16h144v144h16V240h144V224z"/>
<path style="fill:#F49E21;" d="M168,320l-40-40l-40,40l-40-40L8,319.104L48,360L8,400l40,40l40-40l40,40l40-40l-40-40L168,320z"/>
<g>
</g>
<g>
</g>
<g>
</g>
<g>
</g>
<g>
</g>
<g>
</g>
<g>
</g>
<g>
</g>
<g>
</g>
<g>
</g>
<g>
</g>
<g>
</g>
<g>
</g>
<g>
</g>
<g>
</g>
</svg>
