<svg height="496pt" viewBox="0 0 496 496.00547" width="496pt" xmlns="http://www.w3.org/2000/svg"><path d="m305.417969 304.285156-81.414063-16.28125-48 32-48-32-81.417968 16.28125c-22.429688 4.488282-38.582032 24.191406-38.582032 47.074219v136.644531h336v-160c-2.128906-.75-36.320312-23.261718-38.585937-23.71875zm0 0" fill="#e6e9ed"/><path d="m72.003906 488.003906v-128l-24 128zm0 0" fill="#ccd1d9"/><path d="m280.003906 488.003906v-128l24 128zm0 0" fill="#ccd1d9"/><path d="m208.003906 344.003906-32-32-32 32 16 32-16 112h64l-16-112zm0 0" fill="#fc6e51"/><path d="m440.003906 8.003906 48 48v192h-176v-240zm0 0" fill="#e6e9ed"/><path d="m416.003906 128.003906h-72v88h112v-88zm0 0" fill="#fcd770"/><path d="m488.003906 56.003906-48-48h-16v64h64zm0 0" fill="#ccd1d9"/><path d="m440.003906 8.003906v48h48zm0 0" fill="#ffc729"/><path d="m295.914062 302.390625-16.910156 16.910156 11.550782 19.242188c-1.832032 3.75-3.433594 7.589843-4.792969 11.519531l-21.757813 5.445312v56.984376l21.765625 5.449218c1.359375 3.929688 2.960938 7.777344 4.792969 11.519532l-11.550781 19.242187 39.285156 39.300781h2.664063l17.578124-10.550781c1.777344.863281 3.640626 1.503906 5.464844 2.273437v-151.722656c-2.128906-.75-36.320312-23.261718-38.585937-23.71875zm0 0" fill="#ccd1d9"/><path d="m488.003906 400.003906v-32l-18.539062-4.628906c-2.175782-9.035156-5.726563-17.496094-10.445313-25.203125l9.832031-16.390625-22.625-22.625-16.390624 9.832031c-7.707032-4.71875-16.167969-8.269531-25.203126-10.445312l-4.628906-18.539063h-32l-4.632812 18.539063c-9.03125 2.175781-17.496094 5.726562-25.199219 10.445312l-16.394531-9.832031-22.621094 22.625 9.832031 16.390625c-4.722656 7.707031-8.273437 16.167969-10.449219 25.203125l-18.535156 4.628906v32l18.535156 4.632813c2.175782 9.03125 5.726563 17.496093 10.449219 25.199219l-9.832031 16.394531 22.621094 22.621093 16.394531-9.832031c7.703125 4.722657 16.167969 8.273438 25.199219 10.449219l4.632812 18.535156h32l4.628906-18.535156c9.035157-2.175781 17.496094-5.726562 25.203126-10.449219l16.390624 9.832031 22.625-22.621093-9.832031-16.394531c4.71875-7.703126 8.269531-16.167969 10.445313-25.199219zm0 0" fill="#ffc729"/><path d="m104.003906 292.804688v3.199218l24 64 48-40-48-32zm0 0" fill="#ccd1d9"/><path d="m224.003906 288.003906-48 32 48 40 24-64v-3.199218zm0 0" fill="#ccd1d9"/><path d="m224.003906 288.003906-48 32-48-32v-40h96zm0 0" fill="#f0d0b4"/><path d="m224.003906 248.003906h-96v25.824219c13.871094 9.007813 30.367188 14.175781 48 14.175781 1.925782 0 3.863282-.0625 5.824219-.183594 15.429687-1 29.839844-6.152343 42.175781-14.4375zm0 0" fill="#ecc19c"/><path d="m72.003906 104.003906h40v80h-40zm0 0" fill="#cf9e76"/><path d="m280.003906 184.003906v-68.917968c0-55.480469-42.160156-103.527344-97.546875-106.878907-26.847656-1.632812-51.597656 6.972657-70.855469 22.246094-21.015624 16.679687-42.480468 32.792969-65.734374 46.175781l-5.863282 3.375c20.222656 25.28125 50.847656 40 83.222656 40h108.777344c8.839844 0 16 7.160156 16 16v48zm0 0" fill="#b27946"/><path d="m248.003906 152.003906v-16c0-8.839844-7.160156-16-16-16h-108.777344c-6.511718 0-12.917968-.75-19.222656-1.910156v33.910156c-17.671875 0-32 14.328125-32 32s14.328125 32 32 32h1.832032c7.613281 33.539063 38.605468 58.203125 74.957031 55.847656 31.945312-2.070312 57.320312-25.765624 64.859375-55.847656h2.351562c17.671875 0 32-14.328125 32-32s-14.328125-32-32-32zm0 0" fill="#f0d0b4"/><path d="m224.003906 160.003906c0 4.417969-3.582031 8-8 8-4.417968 0-8-3.582031-8-8 0-4.417968 3.582032-8 8-8 4.417969 0 8 3.582032 8 8zm0 0"/><path d="m144.003906 160.003906c0 4.417969-3.582031 8-8 8-4.417968 0-8-3.582031-8-8 0-4.417968 3.582032-8 8-8 4.417969 0 8 3.582032 8 8zm0 0"/><path d="m176.003906 240.003906c17.648438 0 32-14.351562 32-32h-16c0 8.824219-7.175781 16-16 16-8.824218 0-16-7.175781-16-16h-16c0 17.648438 14.351563 32 32 32zm0 0"/><path d="m443.316406.00390625h-139.3125v255.99999975h192v-203.308594zm4.6875 27.31249975 20.6875 20.6875h-20.6875zm-128 212.6875v-224h112v48h48v176zm0 0"/><path d="m392.003906 172.695312-18.34375-18.347656-11.3125 11.3125 29.65625 29.65625 77.65625-77.65625-11.3125-11.3125zm0 0"/><path d="m448.003906 208.003906h-96v-72h64v-16h-80v104h128v-64h-16zm0 0"/><path d="m336.003906 32.003906h16v16h-16zm0 0"/><path d="m368.003906 32.003906h48v16h-48zm0 0"/><path d="m336.003906 64.003906h16v16h-16zm0 0"/><path d="m368.003906 64.003906h48v16h-48zm0 0"/><path d="m368.003906 352.003906h32c4.414063 0 8 3.585938 8 8h16c0-13.230468-10.769531-24-24-24h-8v-8h-16v8h-8c-13.234375 0-24 10.769532-24 24v8c0 13.234375 10.765625 24 24 24h32c4.414063 0 8 3.585938 8 8v8c0 4.417969-3.585937 8-8 8h-32c-4.417968 0-8-3.582031-8-8h-16c0 13.234375 10.765625 24 24 24h8v8h16v-8h8c13.230469 0 24-10.765625 24-24v-8c0-13.230468-10.769531-24-24-24h-32c-4.417968 0-8-3.582031-8-8v-8c0-4.414062 3.582032-8 8-8zm0 0"/><path d="m468.296875 338.246094 10.625-17.710938-31.457031-31.457031-17.710938 10.625c-5.894531-3.210937-12.09375-5.785156-18.503906-7.683594l-5-20.015625h-44.496094l-5 20.027344c-6.414062 1.894531-12.605468 4.46875-18.503906 7.679688l-17.710938-10.625-8.695312 8.695312c-1.617188-.480469-3.21875-1.007812-4.855469-1.335938l-74.984375-14.992187v-25.121094c8.917969-9.054687 15.765625-20.222656 19.816406-32.710937 20.246094-1.960938 36.183594-18.871094 36.183594-39.617188v-68.910156c0-60.847656-46.152344-111.304688-105.066406-114.878906-27.605469-1.707032-54.71875 6.839844-76.3125 23.964844-19.628906 15.585937-41.070312 31.890624-64.75 45.503906l-13.945312 8.035156 5.824218 7.277344c8.585938 10.730468 18.863282 19.59375 30.25 26.480468v72.527344c0 20.554688 15.640625 37.335938 35.597656 39.554688 3.898438 12.582031 10.890626 24.117187 20.402344 33.472656v24.414062l-74.984375 14.992188c-26.089843 5.222656-45.01562475 28.328125-45.01562475 54.921875v144.644531h351.99999975v-21.703125c1.582032.5625 3.136719 1.207031 4.75 1.679688l5 20.023437h44.496094l5-20.023437c6.417969-1.894531 12.609375-4.472657 18.503906-7.679688l17.710938 10.625 31.457031-31.457031-10.625-17.710938c3.210937-5.894531 5.785156-12.097656 7.683594-18.503906l20.023437-5v-44.496094l-20.023437-5c-1.898438-6.417968-4.472657-12.609374-7.683594-18.511718zm-229.972656-39.226563-17.859375 47.625-31.109375-25.925781 36.328125-24.21875zm-71.378907 84.984375h18.121094l13.710938 96h-45.542969zm20.113282-16h-22.113282l-10.015624-20.023437 21.074218-17.558594 21.0625 17.550781zm-51.054688-98.765625c12.054688 7 25.679688 10.765625 39.917969 10.765625 1.785156 0 3.578125-.054687 5.386719-.167968 12.613281-.816407 24.375-4.710938 34.695312-10.878907v14.769531l-40 26.664063-40-26.664063zm119.460938-62.535156c.328125-3.019531.539062-6.066406.539062-9.167969v-36.058594c9.285156 3.3125 16 12.113282 16 22.527344 0 10.617188-6.96875 19.539063-16.539062 22.699219zm-138.894532-169.984375c18.496094-14.671875 41.777344-21.929688 65.402344-20.527344 50.484375 3.054688 90.03125 46.503906 90.03125 98.902344v37.121094c-4.671875-3.539063-10.058594-6.183594-16-7.394532v-8.816406c0-13.230468-10.769531-24-24-24h-108.777344c-26.960937 0-52.273437-10.8125-70.777343-29.941406 23.546875-13.824219 44.722656-29.9375 64.121093-45.34375zm-20.566406 88.046875v20.046875c-5.945312 1.21875-11.328125 3.855469-16 7.394531v-32.671875c5.191406 2.109375 10.519532 3.894532 16 5.230469zm-16 59.238281c0-10.414062 6.710938-19.214844 16-22.527344v38.527344c0 2.226563.160156 4.433594.34375 6.632813-9.464844-3.214844-16.34375-12.085938-16.34375-22.632813zm32-56.535156c3.710938.359375 7.453125.535156 11.222656.535156h108.777344c4.414063 0 8 3.585938 8 8v61.53125c0 35.023438-26.234375 64.167969-59.730468 66.328125-17.976563 1.148438-34.992188-4.929687-48.03125-17.152343-13.054688-12.234376-20.238282-28.824219-20.238282-46.707032zm14.3125 169.023438 36.328125 24.21875-31.113281 25.925781-17.855469-47.625zm-110.3125 54.867187c0-19 13.519532-35.496094 32.160156-39.226563l49.621094-9.925781 26.691406 71.160157 17.832032-14.867188 9.421875 18.839844-14.671875 102.664062h-57.054688v-120h-16v120h-48zm198.941406 128.644531-14.664062-102.65625 9.425781-18.839844 17.832031 14.867188 26.6875-71.160156 44.320313 8.863281-9.464844 9.464844 10.625 17.710937c-3.207031 5.894532-5.785156 12.09375-7.679687 18.503906l-20.023438 5v44.496094l20.023438 5c1.894531 6.414063 4.472656 12.609375 7.679687 18.503906l-10.625 17.710938 31.457031 31.457031 15.464844-9.28125v10.359375zm265.058594-86.246094-17.167968 4.296876-1.144532 4.71875c-1.9375 8.0625-5.136718 15.769531-9.496094 22.894531l-2.527343 4.136719 9.117187 15.183593-13.796875 13.800781-15.183593-9.121093-4.136719 2.53125c-7.136719 4.359375-14.832031 7.550781-22.898438 9.496093l-4.71875 1.140626-4.296875 17.167968h-19.503906l-4.296875-17.167968-4.71875-1.140626c-8.0625-1.9375-15.769531-5.136718-22.894531-9.496093l-4.136719-2.53125-15.183594 9.121093-13.800781-13.800781 9.121094-15.183593-2.527344-4.136719c-4.363281-7.132813-7.554688-14.832031-9.496094-22.894531l-1.144531-4.71875-17.167969-4.296876v-19.503906l17.167969-4.296875 1.144531-4.71875c1.933594-8.066406 5.132813-15.769531 9.496094-22.898437l2.527344-4.132813-9.121094-15.1875 13.800781-13.796875 15.183594 9.117188 4.136719-2.527344c7.136718-4.359375 14.832031-7.550781 22.894531-9.496094l4.71875-1.144531 4.296875-17.167969h19.503906l4.296875 17.167969 4.71875 1.144531c8.066407 1.9375 15.769531 5.136719 22.898438 9.496094l4.136719 2.527344 15.183593-9.117188 13.796875 13.796875-9.117187 15.1875 2.527343 4.132813c4.359376 7.136718 7.550782 14.832031 9.496094 22.898437l1.144532 4.71875 17.167968 4.296875zm0 0"/></svg>