<?xml version="1.0" encoding="utf-8"?>
<!-- Generator: Adobe Illustrator 22.0.0, SVG Export Plug-In . SVG Version: 6.00 Build 0)  -->
<svg xmlns="http://www.w3.org/2000/svg" xmlns:xlink="http://www.w3.org/1999/xlink" version="1.1" id="Layer_1" x="0px" y="0px" viewBox="0 0 500 500" style="enable-background:new 0 0 500 500;" xml:space="preserve" width="512" height="512">
<style type="text/css">
	.st0{fill:#83E1E5;}
	.st1{fill:#AAB1BA;}
	.st2{fill:#ECF4F7;}
	.st3{fill:#FDDF7F;}
	.st4{fill:#1C1D21;}
	.st5{fill:#FFFFFF;}
</style>
<g>
	<g>
		<path class="st1" d="M474.834,495h-24.525c-8.504,0-15.398-6.894-15.398-15.398v-63.994c0-8.504,6.894-15.398,15.398-15.398    h24.525c8.504,0,15.398,6.894,15.398,15.398v63.994C490.232,488.106,483.338,495,474.834,495z"/>
	</g>
</g>
<g>
	<g>
		<path class="st1" d="M399.035,400.209H104.11c-3.802,0-6.884,3.082-6.884,6.884v81.022c0,3.802,3.082,6.884,6.885,6.884h294.925    c3.802,0,6.884-3.082,6.884-6.884l0-81.022C405.92,403.291,402.838,400.209,399.035,400.209z"/>
	</g>
</g>
<g>
	<g>
		<path class="st0" d="M397.081,132.409h-34.289c-9.126,18.558-24.564,33.451-43.516,41.877    c-9.015,4.008-14.721,13.07-14.721,22.936v11.838h3.389c2.661,0,4.819,2.158,4.819,4.819v25.314c0,3.024-2.451,5.475-5.475,5.475    h-8.243v14.995c0,4.586-3.717,8.304-8.303,8.304h-13.402c-4.586,0-8.303-3.717-8.303-8.304v-14.995h-8.242    c-3.024,0-5.475-2.451-5.475-5.475v-25.314c0-2.662,2.158-4.819,4.819-4.819h3.491v-11.216c0-10.074-5.997-19.174-15.247-23.164    c-19.358-8.351-35.128-23.423-44.397-42.271h-85.911c-2.634,0-5.119,0.616-7.346,1.684c-5.723,2.745-9.684,8.575-9.684,15.346    v179.544l0,0c0,3.471-0.439,6.839-1.266,10.052c-0.496,1.928-1.131,3.8-1.895,5.604c-1.018,2.406-2.263,4.692-3.709,6.832    c-1.084,1.605-2.281,3.127-3.58,4.556c-0.433,0.476-0.877,0.942-1.332,1.397c-7.279,7.279-17.334,11.781-28.441,11.781h304.875    c22.214,0,40.222-18.008,40.222-40.222V141.249C405.92,136.367,401.963,132.409,397.081,132.409z"/>
	</g>
</g>
<g>
	<g>
		<path class="st1" d="M94.176,351.472c1.446-2.14,2.691-4.426,3.709-6.832c0.763-1.804,1.398-3.677,1.895-5.604    c0.827-3.213,1.266-6.581,1.266-10.052V149.439l0,0c0-6.771,3.962-12.601,9.684-15.346c2.227-1.068,4.711-1.684,7.346-1.684l0,0    h85.911c-5.783-11.758-9.041-24.982-9.041-38.97c0-4.28,0.311-8.487,0.898-12.605h-37.328c-7.246,0-14.136-3.146-18.882-8.622    l-10.356-11.949c-4.746-5.476-11.636-8.622-18.882-8.622H37.63c-9.405,0-17.03,7.624-17.03,17.029v260.314    c0,22.214,18.008,40.222,40.222,40.222c11.107,0,21.163-4.502,28.441-11.781c0.455-0.455,0.899-0.921,1.332-1.397    C91.895,354.6,93.092,353.077,94.176,351.472z"/>
	</g>
</g>
<g>
	<g>
		<path class="st2" d="M307.944,209.06h-47.805c-2.661,0-4.819,2.158-4.819,4.819v25.314c0,3.024,2.451,5.475,5.475,5.475h46.493    c3.024,0,5.475-2.451,5.475-5.475v-25.314C312.763,211.218,310.606,209.06,307.944,209.06z"/>
	</g>
</g>
<g>
	<g>
		<path class="st1" d="M290.742,267.967h-13.402c-4.586,0-8.303-3.718-8.303-8.303v-14.996h30.009v14.996    C299.046,264.25,295.328,267.967,290.742,267.967z"/>
	</g>
</g>
<g>
	<g>
		<path class="st3" d="M304.555,197.222c0-9.866,5.705-18.928,14.721-22.936c32.033-14.24,54.035-46.954,52.47-84.617    c-1.937-46.633-40.429-84.009-87.098-84.661c-49.423-0.69-89.703,39.167-89.703,88.431c0,36.41,22.003,67.679,53.437,81.24    c9.25,3.991,15.247,13.09,15.247,23.164v11.216h40.926V197.222z"/>
	</g>
</g>
<path class="st4" d="M36.434,484.167c0,2.761-2.238,5-5,5h-5.833V495c0,2.761-2.238,5-5,5s-5-2.239-5-5v-5.833H9.768  c-2.762,0-5-2.239-5-5s2.238-5,5-5h5.833v-5.833c0-2.761,2.238-5,5-5s5,2.239,5,5v5.833h5.833  C34.195,479.167,36.434,481.406,36.434,484.167z M20.601,459.987c2.762,0,5-2.239,5-5v-4.723c0-2.761-2.238-5-5-5s-5,2.239-5,5  v4.723C15.601,457.749,17.839,459.987,20.601,459.987z M435.31,64.02h5.833v5.833c0,2.761,2.238,5,5,5s5-2.239,5-5V64.02h5.833  c2.762,0,5-2.239,5-5s-2.238-5-5-5h-5.833v-5.833c0-2.761-2.238-5-5-5s-5,2.239-5,5v5.833h-5.833c-2.762,0-5,2.239-5,5  S432.548,64.02,435.31,64.02z M451.143,88.2c0-2.761-2.238-5-5-5s-5,2.239-5,5v4.723c0,2.761,2.238,5,5,5s5-2.239,5-5V88.2z   M446.143,108.585c-2.762,0-5,2.239-5,5v103.047c0,2.761,2.238,5,5,5s5-2.239,5-5V113.585  C451.143,110.824,448.904,108.585,446.143,108.585z M495.232,415.607v63.994c0,11.248-9.15,20.398-20.398,20.398h-24.525  c-11.248,0-20.398-9.151-20.398-20.398v-63.994c0-11.248,9.15-20.398,20.398-20.398h7.263v-13.251c0-4.274-3.478-7.752-7.752-7.752  h-84.121H60.823c-14.223,0-26.926-6.606-35.222-16.904v72.3c0,2.761-2.238,5-5,5s-5-2.239-5-5v-100.58  c0-0.013-0.001-0.026-0.001-0.039V68.67c0-12.147,9.882-22.03,22.029-22.03h72.766c8.703,0,16.962,3.771,22.66,10.348l10.356,11.949  c3.799,4.383,9.304,6.897,15.104,6.897h19.476c2.762,0,5,2.239,5,5s-2.238,5-5,5h-19.476c-8.701,0-16.961-3.771-22.66-10.347  l-10.356-11.949c-3.798-4.383-9.303-6.897-15.104-6.897H37.63c-6.633,0-12.029,5.396-12.029,12.03v257.875  c0,0.003,0.001,0.006,0.001,0.01v2.466c0.021,19.404,15.813,35.184,35.222,35.184c19.421,0,35.222-15.801,35.222-35.222V149.439  c0-12.147,9.883-22.029,22.03-22.029h67.57c2.762,0,5,2.239,5,5s-2.238,5-5,5h-67.57c-6.634,0-12.03,5.396-12.03,12.029v179.545  c0,14.22-6.596,26.926-16.89,35.222h276.543c19.421,0,35.222-15.801,35.222-35.222V141.249c0-2.117-1.722-3.839-3.839-3.839h-14.332  c-2.762,0-5-2.239-5-5s2.238-5,5-5h14.332c7.631,0,13.839,6.208,13.839,13.839v187.735c0,14.223-6.606,26.926-16.905,35.222h55.804  c9.788,0,17.752,7.963,17.752,17.752v13.251h7.263C486.082,395.209,495.232,404.36,495.232,415.607z M485.232,415.607  c0-5.734-4.665-10.398-10.398-10.398h-7.263v13.46c0,2.761-2.238,5-5,5s-5-2.239-5-5v-13.46h-7.263  c-5.733,0-10.398,4.665-10.398,10.398v63.994c0,5.734,4.665,10.398,10.398,10.398h24.525c5.733,0,10.398-4.665,10.398-10.398  V415.607z M410.92,407.093v55.376v0v25.646c0,6.553-5.331,11.884-11.885,11.884H104.11c-6.554,0-11.885-5.331-11.885-11.884V462.47  v0v-55.376c0-6.553,5.331-11.884,11.885-11.884h294.925C405.589,395.209,410.92,400.54,410.92,407.093z M102.226,462.47  c0,1.039,0.846,1.884,1.885,1.884h294.925c1.039,0,1.885-0.845,1.885-1.884v-55.376c0-1.039-0.846-1.884-1.885-1.884H104.11  c-1.039,0-1.885,0.845-1.885,1.884V462.47z M400.92,474.205c-0.141,0.022-0.285,0.034-0.428,0.051  c-0.121,0.015-0.24,0.032-0.361,0.043c-0.346,0.032-0.696,0.052-1.051,0.053c-0.015,0-0.03,0.002-0.045,0.002H104.11  c-0.015,0-0.03-0.002-0.045-0.002c-0.354-0.001-0.704-0.021-1.051-0.053c-0.121-0.011-0.241-0.028-0.361-0.043  c-0.142-0.018-0.287-0.029-0.428-0.051v13.911c0,1.039,0.846,1.884,1.885,1.884h294.925c1.039,0,1.885-0.845,1.885-1.884V474.205z   M131.134,429.392h4.24c2.762,0,5-2.239,5-5s-2.238-5-5-5h-4.24c-2.762,0-5,2.239-5,5S128.372,429.392,131.134,429.392z   M170.573,429.392h4.241c2.762,0,5-2.239,5-5s-2.238-5-5-5h-4.241c-2.762,0-5,2.239-5,5S167.812,429.392,170.573,429.392z   M210.013,429.392h4.241c2.762,0,5-2.239,5-5s-2.238-5-5-5h-4.241c-2.762,0-5,2.239-5,5S207.251,429.392,210.013,429.392z   M249.452,429.392h4.241c2.762,0,5-2.239,5-5s-2.238-5-5-5h-4.241c-2.762,0-5,2.239-5,5S246.69,429.392,249.452,429.392z   M288.893,429.392h4.24c2.762,0,5-2.239,5-5s-2.238-5-5-5h-4.24c-2.762,0-5,2.239-5,5S286.131,429.392,288.893,429.392z   M328.332,429.392h4.241c2.762,0,5-2.239,5-5s-2.238-5-5-5h-4.241c-2.762,0-5,2.239-5,5S325.57,429.392,328.332,429.392z   M367.771,429.392h4.241c2.762,0,5-2.239,5-5s-2.238-5-5-5h-4.241c-2.762,0-5,2.239-5,5S365.01,429.392,367.771,429.392z   M131.134,452.604h4.24c2.762,0,5-2.239,5-5s-2.238-5-5-5h-4.24c-2.762,0-5,2.239-5,5S128.372,452.604,131.134,452.604z   M170.573,452.604h4.241c2.762,0,5-2.239,5-5s-2.238-5-5-5h-4.241c-2.762,0-5,2.239-5,5S167.812,452.604,170.573,452.604z   M210.013,452.604h4.241c2.762,0,5-2.239,5-5s-2.238-5-5-5h-4.241c-2.762,0-5,2.239-5,5S207.251,452.604,210.013,452.604z   M249.452,452.604h4.241c2.762,0,5-2.239,5-5s-2.238-5-5-5h-4.241c-2.762,0-5,2.239-5,5S246.69,452.604,249.452,452.604z   M288.893,452.604h4.24c2.762,0,5-2.239,5-5s-2.238-5-5-5h-4.24c-2.762,0-5,2.239-5,5S286.131,452.604,288.893,452.604z   M328.332,452.604h4.241c2.762,0,5-2.239,5-5s-2.238-5-5-5h-4.241c-2.762,0-5,2.239-5,5S325.57,452.604,328.332,452.604z   M367.771,452.604h4.241c2.762,0,5-2.239,5-5s-2.238-5-5-5h-4.241c-2.762,0-5,2.239-5,5S365.01,452.604,367.771,452.604z   M189.945,93.439c0-25.205,9.885-48.834,27.833-66.534c17.945-17.697,41.749-27.245,66.938-26.896  c23.858,0.333,46.495,9.745,63.739,26.5c17.25,16.762,27.296,39.119,28.286,62.952c1.604,38.621-20.155,73.709-55.435,89.393  c-7.139,3.174-11.752,10.383-11.752,18.367v6.982c4.648,0.772,8.207,4.811,8.207,9.675v7.985h17.664c2.762,0,5,2.239,5,5  s-2.238,5-5,5h-17.664v7.33c0,5.776-4.699,10.475-10.475,10.475h-3.242v9.996c0,7.335-5.968,13.303-13.304,13.303h-13.401  c-7.336,0-13.304-5.968-13.304-13.303v-9.996h-3.242c-5.775,0-10.475-4.699-10.475-10.475v-7.33h-18.978c-2.762,0-5-2.239-5-5  s2.238-5,5-5h18.978v-7.985c0-4.9,3.611-8.961,8.31-9.691v-6.344c0-8.078-4.8-15.369-12.228-18.574  C212.106,164.475,189.945,130.784,189.945,93.439z M263.63,214.06h-3.31v7.804h47.442v-7.804h-3.207H263.63z M294.046,249.668  h-20.009v9.996c0,1.821,1.482,3.303,3.304,3.303h13.401c1.821,0,3.304-1.482,3.304-3.303V249.668z M307.763,231.864H260.32v7.33  c0,0.262,0.213,0.475,0.475,0.475h8.242h30.009h8.242c0.262,0,0.475-0.213,0.475-0.475V231.864z M199.945,93.439  c0,33.35,19.79,63.436,50.418,76.649c11.097,4.787,18.267,15.682,18.267,27.755v6.216h9.755v-85.797l-22.209-22.429  c-1.943-1.962-1.928-5.128,0.035-7.071c1.962-1.943,5.128-1.928,7.07,0.035l20.104,20.303l20.104-20.303  c1.942-1.962,5.108-1.978,7.07-0.035c1.963,1.943,1.979,5.108,0.035,7.071l-22.209,22.429v85.797h11.171v-6.838  c0-11.932,6.943-22.728,17.689-27.505c31.506-14.006,50.938-45.346,49.505-79.84c-1.835-44.168-37.93-79.251-82.172-79.869  c-0.4-0.005-0.803-0.008-1.201-0.008c-22.078,0-42.838,8.504-58.577,24.026C208.772,49.832,199.945,70.932,199.945,93.439z   M213.562,221.864c-2.762,0-5,2.239-5,5s2.238,5,5,5h2.579c2.762,0,5-2.239,5-5s-2.238-5-5-5H213.562z M350.629,221.864  c-2.762,0-5,2.239-5,5s2.238,5,5,5h2.578c2.762,0,5-2.239,5-5s-2.238-5-5-5H350.629z"/>
</svg>
