<svg height="512" viewBox="0 0 58 58" width="512" xmlns="http://www.w3.org/2000/svg"><g id="014---Mt-Fuji" fill="none" transform="translate(-1)"><path id="Shape" d="m29.88 9.92c-.8396459-.60134007-1.8472344-.92320859-2.88-.92 0-2.76142375-2.2385763-5-5-5s-5 2.23857625-5 5c-2.0503281.00536408-3.8895844 1.261925-4.64 3.17-.7834599-1.0177291-2.1278643-1.4238303-3.34374117-1.0100363-1.21587688.4137939-2.03346307 1.5556758-2.03346307 2.8400363s.81758619 2.4262424 2.03346307 2.8400363c1.21587687.413794 2.56028127.0076928 3.34374117-1.0100363.93 2.36 5.81 4.64 8.91 2l8.66-3.34z" fill="#bdc3c7"/><path id="Shape" d="m16.94 43.62-.11-11.7c2.4157262-5.457218 4.09705-11.2107083 5-17.11.0922491-.4771082.5141358-.8188364 1-.81h14.34c.4858642-.0088364.9077509.3328918 1 .81 1.06 5.53 1.91 10.2 5 17.11l.39 9.77z" fill="#ecf0f1"/><path id="Shape" d="m58 58h-56c-.33701328.0031017-.65291829-.1637649-.84033233-.4438784-.18741404-.2801134-.22112269-.6357877-.08966767-.9461216l3-6.42c.31021708-.7791266 1.09454592-1.2627283 1.93-1.19.36209586.0454653.7064373.1832018 1 .4.5655751.3613159 1.27928686.3992793 1.88.1l3.87-1.94c1.9271792-.9633255 4.2387186-.7173339 5.92.63l.86.73c1.2330254.9900623 2.870645 1.3183323 4.39.88 2.08-1.15 2.77-1.62 3.46-1.75.5512407-.1099174 1.1187593-.1099174 1.67 0l5.48 1.69c1.5962702.3552064 3.2591551.2687778 4.81-.25l3.42-1.1c2.0158328-.6710136 4.2078801-.5784921 6.16.26l3 .89c1.65.44 1.53-.45 2.66-.57.9229742-.1216385 1.797068.4469467 2.06 1.34l2.36 6.39c.0983996.3116604.038293.6517384-.1609758.9107878-.1992688.2590495-.5125511.4043769-.8390242.3892122z" fill="#603e26"/><path id="Shape" d="m55.82 58h-51.64c-.66 0-1.11-.86-.86-1.64l2.68-7.36c.36209586.0454653.7064373.1832018 1 .4.5655751.3613159 1.27928686.3992793 1.88.1l3.87-1.94c1.9271792-.9633255 4.2387186-.7173339 5.92.63l.86.73c1.2330254.9900623 2.870645 1.3183323 4.39.88 4.5-2.48 3-2.37 10.61 0 1.5962702.3552064 3.2591551.2687778 4.81-.25l3.42-1.1c2.0158328-.6710136 4.2078801-.5784921 6.16.26 2.89.85 3.31 1 3.8 1 .85 0 1-.6 1.9-.69l2 7.43c.27.78-.18 1.55-.8 1.55z" fill="#805333"/><path id="Shape" d="m53.1 49.68c-.53.16-1.12-.09-4.12-1-1.9531631-.8339004-4.1435146-.9263503-6.16-.26-3.54 1.16-5.28 2-8.23 1.35l-5.48-1.69c-.5512407-.1099174-1.1187593-.1099174-1.67 0-.63.11-1 .41-3.46 1.75-1.519355.4383323-3.1569746.1100623-4.39-.88l-.86-.73c-1.6812814-1.3473339-3.9928208-1.5933255-5.92-.63l-3.87 1.93c-.60071314.2992793-1.3144249.2613159-1.88-.1.36-.72-1.67 2.29 4.88-8.48 1.8168617-2.8946379 3.4500783-5.9005581 4.89-9l.17.06 2.4-1.8c.3145699-.2380357.7396832-.2688963 1.0853337-.0787885.3456505.1901077.5472396.5656547.5146663.9587885l-.92 4.84c-.0430002.4916266.279075.9411127.7584254 1.0584537.4793504.1173409.9726281-.1325535 1.1615746-.5884537l4-7.79c.1727356-.4122628.5980863-.6598238 1.0418682-.6063841.443782.0534397.7982034.3949.8681318.8363841l1.14 11.33c.0691563.4652926.4532533.8194797.9226153.8507705s.8970759-.2687755 1.0273847-.7207705l2.14-7.58c.1148169-.3976167.462702-.6834227.8750415-.7188927.4123395-.0354701.8039236.1867256.9849585.5588927l1.12 2.68c.88 1.77 1.52 0 1.88-.69.1893038-.3517172.5697488-.5570494.9676566-.5222597.3979077.0347898.7369477.3030278.8623434.6822597l.22 3.59c.0357266.3572656.2593382.6683327.5866025.8160254.3272644.1476927.7084622.1095729 1-.1s.4491241-.5587598.4133975-.9160254l.95-6.09.17-.08c1.4039786 3.1174011 3.0385124 6.1257454 4.89 9z" fill="#95a5a5"/><path id="Shape" d="m8.92 27.32c-.30829139-1.2897517-1.4267841-2.2240886-2.75081382-2.2979021s-2.53944566.73041-2.98918618 1.9779021c-.91390794-.0940156-1.7743225.4466982-2.08603258 1.310934s.00546764 1.8296802.7689817 2.3406724c.76351406.5109921 1.77696052.4360859 2.45705088-.1816064 1.24420293.8582594 2.93259967.6568517 3.94-.47.39663689.7205317 1.19395074 1.1247731 2.0095926 1.0188718.8156419-.1059014 1.4832877-.7003503 1.6827704-1.498281.1994827-.7979308-.1098759-1.6366308-.779724-2.1139047-.669848-.4772738-1.56359152-.4957967-2.252639-.0466861z" fill="#bdc3c7"/><path id="Shape" d="m51.08 21.82c.313414-1.2878 1.4347532-2.2173259 2.7583361-2.2865027 1.3235829-.0691769 2.5357109.7383909 2.9816639 1.9865027.9114665-.0891496 1.7670335.4521742 2.0768044 1.3140099s-.0054086 1.8239626-.7650671 2.335468-1.7696841.4416867-2.4517373-.1694779c-1.2587031.8437652-2.949008.6163891-3.94-.53-.3966369.7205317-1.1939507 1.1247731-2.0095926 1.0188718-.8156419-.1059014-1.4832877-.7003503-1.6827704-1.498281-.1994827-.7979308.1098759-1.6366308.779724-2.1139047.669848-.4772738 1.5635915-.4957967 2.252639-.0466861z" fill="#bdc3c7"/><path id="Shape" d="m57.47 21.56c2.6307216-5.4437191 1.7360447-11.93466933-2.2692678-16.46371402-4.0053124-4.52904468-10.3381604-6.21068609-16.0627018-4.26533284s-9.7215406 7.13735474-10.1380304 13.16904686h8.14c.4858642-.0088364.9077509.3328918 1 .81.8008027 5.1745428 2.2001875 10.2385036 4.17 15.09 4.6416114.5250113 9.2628654-1.1423372 12.5-4.51z" fill="#ff5364"/><path id="Shape" d="m51.08 21.82c.313414-1.2878 1.4347532-2.2173259 2.7583361-2.2865027 1.3235829-.0691769 2.5357109.7383909 2.9816639 1.9865027.9114665-.0891496 1.7670335.4521742 2.0768044 1.3140099s-.0054086 1.8239626-.7650671 2.335468-1.7696841.4416867-2.4517373-.1694779c-1.2587031.8437652-2.949008.6163891-3.94-.53-.3966369.7205317-1.1939507 1.1247731-2.0095926 1.0188718-.8156419-.1059014-1.4832877-.7003503-1.6827704-1.498281-.1994827-.7979308.1098759-1.6366308.779724-2.1139047.669848-.4772738 1.5635915-.4957967 2.252639-.0466861z" fill="#bdc3c7"/></g></svg>