<svg id="Capa_1" enable-background="new 0 0 510 510" height="512" viewBox="0 0 510 510" width="512" xmlns="http://www.w3.org/2000/svg"><g><path d="m22.5 0v480l93.75 10 93.75-10 10-214.333-10-265.667z" fill="#fff5f5"/><path d="m397.5 90.001-54.5-38.001-35.5-52h-97.5v480l93.75 10 93.75-10z" fill="#ece6f2"/><g><path d="m71.25 292h90v30h-90z" fill="#ff6c6c"/></g><g><path d="m71.25 352h90v30h-90z" fill="#ff6c6c"/></g><g><path d="m71.25 412h90v30h-90z" fill="#ff6c6c"/></g><path d="m116.25 52c-33.084 0-60 26.916-60 60v90h30v-45h60v45h30v-90c0-33.084-26.916-60-60-60zm-30 75v-15c0-16.542 13.458-30 30-30s30 13.458 30 30v15z" fill="#7681e1"/><path d="m457.5 420-15-10-15 10v30l15 10 15-10 10-15z" fill="#fc6"/><path d="m457.5 420v30l15 10 15-10v-30l-15-10z" fill="#f9bb4b"/><path d="m397.5 90-90-90v90z" fill="#cfcfe6"/><path d="m427.5 105h60v315h-60z" fill="#ffe666"/><path d="m427.5 105h60l-30-103.412z" fill="#404a80"/><path d="m378.75 352v-30h-60v-30h-30v30h-60v30h30c0 19.067 6.615 36.737 18.322 50.797l-27.845 11.463 11.42 27.74c36.642-15.209 37.086-14.994 43.103-18.058 5.911 3.01 7.082 3.107 43.102 18.058l11.42-27.74-27.845-11.463c11.706-14.06 18.322-31.73 18.322-50.797zm-75 35.58c-9.605-9.306-15-21.73-15-35.58h30c0 13.85-5.395 26.273-15 35.58z" fill="#283366"/><path d="m22.5 480v30h187.5l10-15-10-15z" fill="#ece6f2"/><path d="m210 480h187.5v30h-187.5z" fill="#cfcfe6"/><g><path d="m258.75 172h90v30h-90z" fill="#f37"/></g><g><path d="m258.75 232h90v30h-90z" fill="#f37"/></g><path d="m427.5 450v60h30l10-30-10-30z" fill="#ff6c6c"/><path d="m457.5 450h30v60h-30z" fill="#f37"/><path d="m427.5 105v315h30l10-147-10-168-13.25-10z" fill="#ffe666"/><path d="m487.5 105-16.5-10-13.5 10v315h30z" fill="#fc6"/><path d="m457.5 1.588-30 103.412h30l10-32.75z" fill="#404a80"/><path d="m487.5 105-30-103.412v103.412z" fill="#283366"/></g></svg>