<svg id="Capa_1" enable-background="new 0 0 512 512" height="512" viewBox="0 0 512 512" width="512" xmlns="http://www.w3.org/2000/svg"><g><g><g><path d="m485.862 355.4c10.293 0 18.638-8.344 18.638-18.637v-310.625c0-10.293-8.344-18.638-18.638-18.638h-393.458c-10.293 0-18.638 8.344-18.638 18.638v310.625c0 10.293 8.344 18.637 18.638 18.637z" fill="#b37059"/><path d="m106.899 322.267v-273.35c0-4.575 3.709-8.283 8.283-8.283h347.9c4.575 0 8.283 3.709 8.283 8.283v265.067c0 4.575-3.709 8.283-8.283 8.283z" fill="#595353"/><path d="m485.862 7.5h-23c10.293 0 18.638 8.344 18.638 18.638v310.625c0 10.293-8.344 18.637-18.638 18.637h23c10.293 0 18.638-8.344 18.638-18.637v-310.625c0-10.294-8.345-18.638-18.638-18.638z" fill="#995a4d"/><path d="m463.083 40.633h-22.999c4.575 0 8.283 3.709 8.283 8.283v265.067c0 4.575-3.709 8.283-8.283 8.283h22.999c4.575 0 8.283-3.709 8.283-8.283v-265.066c0-4.575-3.708-8.284-8.283-8.284z" fill="#403939"/></g><g><path d="m106.901 388.536h-33.138c-36.596 0-66.263 29.667-66.263 66.263v33.135c0 9.15 7.417 16.567 16.567 16.567h248.498c9.15 0 16.567-7.417 16.567-16.567v-33.135c0-36.596-29.667-66.263-66.263-66.263h-33.139z" fill="#68d9c0"/><g><g><path d="m222.869 388.535h-22.986c36.59.007 66.249 29.671 66.249 66.262v33.135c0 9.15-7.417 16.567-16.567 16.567h22.999c9.15 0 16.567-7.417 16.567-16.567v-33.135c.001-36.595-29.666-66.262-66.262-66.262z" fill="#4fc6b9"/></g></g><path d="m106.899 339.752h82.833v75.246h-82.833z" fill="#fb9"/><path d="m48.917 211.25v-38.083c0-36.598 29.669-66.267 66.267-66.267h66.267c36.598 0 66.267 29.669 66.267 66.267v38.083z" fill="#595353"/><path d="m247.717 272.567c9.149 0 16.567-7.417 16.567-16.567v-33.133c0-9.15-7.417-16.567-16.567-16.567h-198.799c-9.15 0-16.567 7.417-16.567 16.567v33.133c0 9.149 7.417 16.567 16.567 16.567z" fill="#fb9"/><path d="m247.717 206.3h-16.567-6.433c9.149 0 16.567 7.417 16.567 16.567v33.133c0 9.15-7.417 16.567-16.567 16.567h6.433 16.567c9.149 0 16.567-7.417 16.567-16.567v-33.133c0-9.15-7.418-16.567-16.567-16.567z" fill="#ffa27d"/><path d="m65.485 167.75.001 104.82c0 45.747 37.085 82.832 82.832 82.832s82.832-37.085 82.832-82.832v-104.82z" fill="#ffd9b3"/><path d="m197.3 408.206h-97.967l48.984 66.267z" fill="#cfd7e6"/><path d="m65.484 206.3h69.049c27.449 0 49.7-22.252 49.7-49.7v-20.1h-118.748l-6.485 36.667z" fill="#595353"/><path d="m231.151 206.3h-16.567c-18.299 0-33.133-14.834-33.133-33.133v-14.092h51.549z" fill="#595353"/><path d="m224.717 206.3h23v-33.133c0-36.598-29.669-66.267-66.267-66.267h-22.998c36.597.001 66.265 29.669 66.265 66.267z" fill="#403939"/><path d="m148.317 474.473-66.517-44.344c-4.224-2.816-4.944-8.734-1.519-12.481l26.616-29.114 41.42 85.939 41.419-85.94 26.617 29.114c3.426 3.747 2.705 9.665-1.519 12.481 0 .001-66.517 44.345-66.517 44.345z" fill="#f3f5f9"/></g><g><path d="m335.9 432.333v-71.667h-65.405v39.256c0 12.009 9.734 21.744 21.744 21.744v10.667z" fill="#fb9"/><path d="m339.4 504.5h-50.833c-8.837 0-16-7.163-16-16v-58.833c0-4.418 3.582-8 8-8h66.833c4.418 0 8 3.582 8 8v58.833c0 8.837-7.164 16-16 16z" fill="#68d9c0"/><path d="m347.4 421.667h-23c4.418 0 8 3.582 8 8v58.833c0 8.836-7.164 16-16 16h23c8.837 0 16-7.164 16-16v-58.833c0-4.419-3.582-8-8-8z" fill="#4fc6b9"/><path d="m308.5 309.379h-11.406c-3.46-2.322-7.623-3.677-12.103-3.677-12.009 0-21.744 9.735-21.744 21.744v28.99c0 12.009 9.735 21.744 21.744 21.744 2.561 0 5.019-.443 7.301-1.256h16.208z" fill="#ffd9b3"/><path d="m335.726 305.7h-28.591c-7.564 0-14.164 5.628-14.837 13.162-.601 6.728 3.4 12.606 9.21 14.853.41.158.689.539.689.978 0 .44-.28.821-.691.98-5.421 2.098-9.268 7.353-9.268 13.514 0 6.16 3.846 11.415 9.266 13.513.412.16.693.542.693.984 0 .441-.28.822-.691.981-5.545 2.146-9.444 7.597-9.261 13.942.228 7.91 7.004 14.068 14.917 14.068.572 0 1.035.464 1.035 1.035v.507c0 .402-.238.76-.601.933-5.085 2.428-8.492 6.863-8.075 13.034.518 7.669 7.184 13.482 14.871 13.482h21.335c16.012 0 28.992-12.98 28.992-28.992v-57.983c-.001-16.011-12.981-28.991-28.993-28.991z" fill="#ffd9b3"/><g fill="#fb9"><path d="m335.726 305.7h-23c16.012 0 28.992 12.98 28.992 28.992v57.983c0 15.648-12.4 28.394-27.909 28.964.195.008.387.027.582.027h21.335c16.012 0 28.992-12.98 28.992-28.992v-57.983c0-16.011-12.98-28.991-28.992-28.991z"/><g><path d="m326.478 327.192h-32.432c1.637 2.96 4.274 5.29 7.462 6.523.41.159.689.539.689.978 0 .44-.28.821-.691.98-3.186 1.233-5.82 3.561-7.457 6.518h32.428c4.143 0 7.5-3.358 7.5-7.5.001-4.141-3.356-7.499-7.499-7.499z"/><path d="m326.478 356.183h-32.428c1.637 2.956 4.27 5.284 7.455 6.517.412.159.693.542.693.984 0 .441-.28.822-.691.981-3.186 1.233-5.823 3.56-7.46 6.518h32.432c4.143 0 7.5-3.358 7.5-7.5-.001-4.142-3.358-7.5-7.501-7.5z"/><path d="m326.478 385.177h-32.371c2.577 4.497 7.535 7.498 13.055 7.498.572 0 1.035.464 1.035 1.035v.507c0 .402-.238.76-.601.933-2.508 1.198-4.605 2.885-6.039 5.027h24.921c4.143 0 7.5-3.358 7.5-7.5s-3.357-7.5-7.5-7.5z"/></g></g></g></g><g fill="#0c0a0b"><path d="m485.862 0h-62.444c-4.143 0-7.5 3.358-7.5 7.5s3.357 7.5 7.5 7.5h62.444c6.141 0 11.138 4.996 11.138 11.138v310.625c0 6.141-4.996 11.137-11.138 11.137h-113.644v-13.208c0-1.671-.123-3.313-.342-4.925h91.206c8.703 0 15.784-7.081 15.784-15.783v-265.067c0-8.703-7.081-15.783-15.784-15.783h-347.899c-8.703 0-15.783 7.081-15.783 15.783v52.201c-6.393 1.4-12.475 3.632-18.134 6.575v-81.555c0-6.141 4.996-11.138 11.138-11.138h301.014c4.142 0 7.5-3.358 7.5-7.5s-3.358-7.5-7.5-7.5h-301.014c-14.412 0-26.138 11.725-26.138 26.138v91.88c-15.229 13.523-24.85 33.229-24.85 55.149v26.836c-9.608 3.16-16.565 12.212-16.565 22.863v33.134c0 13.271 10.796 24.067 24.066 24.067h9.382c.885 10.723 3.651 20.919 7.967 30.26v26.436c0 14.412 11.726 26.137 26.138 26.137h6.996v18.136h-25.637c-40.673 0-73.763 33.09-73.763 73.763v33.135c.001 13.27 10.796 24.066 24.067 24.066h34.699c4.143 0 7.5-3.358 7.5-7.5s-3.357-7.5-7.5-7.5h-34.699c-4.999 0-9.066-4.067-9.066-9.067v-33.135c0-32.402 26.36-58.763 58.763-58.763h16.115l-15.131 16.551c-3.111 3.402-4.576 7.979-4.02 12.556.557 4.577 3.076 8.669 6.913 11.227l66.399 44.266c.01.007.021.014.031.021l.087.058c.027.018.057.03.084.047.089.058.182.109.274.164.167.098.334.193.507.277.06.029.118.063.178.09.071.032.145.057.216.087.178.075.358.141.541.202.085.029.169.066.255.091.048.014.098.02.146.033.197.053.397.094.597.131.126.023.251.052.377.069.3.04.602.062.905.065.024 0 .048.005.072.005h.007.007c.024 0 .048-.005.072-.005.303-.003.605-.025.905-.065.126-.017.251-.046.377-.069.201-.037.4-.077.597-.131.048-.013.098-.019.146-.033.086-.025.169-.063.255-.091.183-.061.363-.127.541-.202.072-.03.146-.055.216-.087.06-.028.118-.061.178-.09.173-.085.341-.179.507-.277.092-.054.185-.106.274-.164.027-.018.057-.029.084-.047l.087-.058c.01-.007.021-.014.031-.021l66.398-44.266c3.837-2.558 6.356-6.65 6.913-11.226.557-4.577-.908-9.153-4.019-12.556l-15.131-16.551h16.113c18.29 0 35.5 8.61 46.544 22.893-2.686 2.788-4.348 6.57-4.348 10.738v58.833c0 2.997.57 5.862 1.597 8.5h-177.896c-4.143 0-7.5 3.358-7.5 7.5s3.357 7.5 7.5 7.5h183.8c2.746 0 5.467-.482 8.038-1.391 2.488.899 5.169 1.391 7.963 1.391h50.833c12.958 0 23.5-10.542 23.5-23.5v-58.833c0-3.566-1.223-6.845-3.254-9.467 7.695-6.695 12.573-16.548 12.573-27.525v-29.775h113.643c14.412 0 26.138-11.725 26.138-26.137v-310.625c.001-14.413-11.725-26.138-26.137-26.138zm-128.644 392.675c0 11.851-9.642 21.492-21.492 21.492h-21.335c-3.906 0-7.224-2.982-7.396-6.648-.092-1.941.592-3.779 1.924-5.176 1.328-1.392 3.117-2.16 5.038-2.166.008 0 .016.001.024.001h14.496c4.143 0 7.5-3.358 7.5-7.5s-3.357-7.5-7.5-7.5h-14.447c-.016 0-.032-.002-.048-.002h-7.247c-3.857 0-6.996-3.138-6.996-6.996s3.139-6.996 6.996-6.996h21.743c4.143 0 7.5-3.358 7.5-7.5s-3.357-7.5-7.5-7.5h-21.743c-3.857 0-6.996-3.138-6.996-6.996s3.139-6.996 6.996-6.996h21.743c4.143 0 7.5-3.358 7.5-7.5s-3.357-7.5-7.5-7.5h-21.743c-1.932 0-3.729-.77-5.064-2.168-1.332-1.396-2.016-3.235-1.924-5.176.172-3.666 3.489-6.647 7.396-6.647h28.583c11.85 0 21.492 9.641 21.492 21.492zm-159.106-44.775c7.563-5.016 14.331-11.136 20.07-18.133h37.564v18.133zm-125.126-75.33-.001-58.77h61.548c17.896 0 33.893-8.267 44.389-21.176 6.906 12.607 20.301 21.176 35.661 21.176h9.067l-.001 58.767v.003c0 41.539-33.794 75.333-75.332 75.333-41.537-.001-75.331-33.795-75.331-75.333zm174.731-58.77c4.999 0 9.066 4.067 9.066 9.066v33.134c0 5-4.067 9.067-9.066 9.067h-9.067l.001-51.267zm-72.174 186.907h-54.453l-6.69-13.882v-30.537c10.478 4.261 21.927 6.615 33.918 6.615 11.989 0 23.438-2.354 33.915-6.614v30.538zm-7.229 15-19.997 41.492-19.997-41.492zm121.883-81.007c-3.397 3.873-5.458 8.944-5.458 14.488 0 5.547 2.064 10.622 5.466 14.496-1.776 2.022-3.175 4.377-4.118 6.95-.363.027-.728.046-1.096.046-7.854 0-14.244-6.39-14.244-14.244v-28.99c0-7.854 6.39-14.244 14.244-14.244.301 0 .599.014.898.033-.631 1.869-1.028 3.846-1.125 5.908-.271 5.77 1.653 11.258 5.433 15.557zm-12.202 65.223v-15.096c2.243.553 4.585.852 6.996.852.355 0 .706-.032 1.06-.045 1.632 4.513 4.691 8.348 8.64 10.943-1.938 3.514-2.874 7.508-2.68 11.646.097 2.075.498 4.064 1.136 5.944h-.908c-7.855 0-14.244-6.39-14.244-14.244zm-163.595-351.006c0-.432.352-.783.783-.783h347.899c.433 0 .784.352.784.783v265.067c0 .432-.352.783-.784.783h-96.808c-6.522-9.965-17.776-16.566-30.549-16.566h-22.527v-125.034c0-4.142-3.357-7.5-7.5-7.5s-7.5 3.358-7.5 7.5v126.865c-.487.207-.973.416-1.44.655-3.687-1.624-7.675-2.485-11.768-2.485-11.748 0-21.893 6.967-26.54 16.983-.769-.266-1.591-.418-2.451-.418h-27.832c5.578-10.514 9.141-22.252 10.169-34.7h9.381c13.27 0 24.066-10.796 24.066-24.067v-33.133c0-10.652-6.958-19.704-16.566-22.863v-26.836c0-40.675-33.092-73.767-73.767-73.767h-66.267c-.263 0-.522.017-.784.02v-50.504zm.784 65.483h66.267c32.404 0 58.767 26.363 58.767 58.767v25.633h-9.066-.001-16.566c-13.811 0-25.1-10.983-25.608-24.673 1.784-5.527 2.758-11.415 2.758-17.527 0-4.142-3.357-7.5-7.5-7.5s-7.5 3.358-7.5 7.5c0 23.269-18.931 42.2-42.2 42.2h-69.05-.001-9.067v-25.633c0-32.404 26.363-58.767 58.767-58.767zm-75.333 141.6v-33.133c0-4.999 4.067-9.066 9.066-9.066h9.068l.001 51.267h-9.068c-5-.001-9.067-4.068-9.067-9.068zm41.415 80.763v-3.728c5.097 5.647 10.897 10.647 17.258 14.866h-6.12c-6.142-.001-11.138-4.997-11.138-11.138zm4.352 86.568c-.044-.357.139-.557.199-.623l19.137-20.934 24.695 51.24-43.689-29.126c-.074-.049-.299-.199-.342-.557zm125.398 0c-.043.358-.269.508-.343.558l-43.689 29.126 24.695-51.24 19.137 20.933c.06.065.244.266.2.623zm-13.783-42.296v-18.135h59.243c1.091 4.815 3.372 9.181 6.519 12.775v17.28c-11.779-7.635-25.681-11.92-40.125-11.92zm142.166 115.965h-50.833c-4.686 0-8.5-3.813-8.5-8.5v-26.2h67.833v26.2c0 4.687-3.814 8.5-8.5 8.5zm8-67.833c.275 0 .5.224.5.5v17.633h-67.833v-17.633c0-.255.195-.458.442-.488.061-.002.122-.008.182-.012h11.549 22.152 21.335z"/><path d="m115.184 255.216c4.143 0 7.5-3.358 7.5-7.5v-8.283c0-4.142-3.357-7.5-7.5-7.5s-7.5 3.358-7.5 7.5v8.283c0 4.142 3.357 7.5 7.5 7.5z"/><path d="m181.451 255.216c4.143 0 7.5-3.358 7.5-7.5v-8.283c0-4.142-3.357-7.5-7.5-7.5s-7.5 3.358-7.5 7.5v8.283c0 4.142 3.357 7.5 7.5 7.5z"/><path d="m148.318 296.636c8.551 0 16.533-4.607 20.832-12.022 2.077-3.584.855-8.173-2.729-10.25s-8.173-.855-10.25 2.727c-1.624 2.803-4.634 4.545-7.854 4.545s-6.23-1.742-7.854-4.545c-2.078-3.584-6.666-4.805-10.25-2.727-3.584 2.077-4.806 6.666-2.728 10.25 4.3 7.415 12.282 12.022 20.833 12.022z"/></g></g></svg>