<svg id="Capa_1" enable-background="new 0 0 510 510" height="512" viewBox="0 0 510 510" width="512" xmlns="http://www.w3.org/2000/svg" xmlns:xlink="http://www.w3.org/1999/xlink"><linearGradient id="lg1"><stop offset="0" stop-color="#5a5a5a"/><stop offset="1" stop-color="#444"/></linearGradient><linearGradient id="SVGID_1_" gradientUnits="userSpaceOnUse" x1="241.356" x2="426.077" xlink:href="#lg1" y1="302.88" y2="487.601"/><linearGradient id="lg2"><stop offset="0" stop-color="#433f43" stop-opacity="0"/><stop offset="1" stop-color="#1a1a1a"/></linearGradient><linearGradient id="SVGID_2_" gradientUnits="userSpaceOnUse" x1="452.667" x2="391.766" xlink:href="#lg2" y1="316.525" y2="316.525"/><linearGradient id="SVGID_3_" gradientUnits="userSpaceOnUse" x1="255" x2="255" xlink:href="#lg2" y1="432.236" y2="477.303"/><linearGradient id="SVGID_4_" gradientUnits="userSpaceOnUse" x1="255" x2="255" xlink:href="#lg2" y1="374.667" y2="422.893"/><linearGradient id="SVGID_5_" gradientUnits="userSpaceOnUse" x1="161.072" x2="383.898" y1="222.597" y2="445.423"><stop offset="0" stop-color="#ccfc5c"/><stop offset=".1591" stop-color="#c6f95a"/><stop offset=".3653" stop-color="#b6f053"/><stop offset=".5975" stop-color="#9be248"/><stop offset=".8469" stop-color="#76cf38"/><stop offset="1" stop-color="#5cc12d"/></linearGradient><linearGradient id="SVGID_6_" gradientUnits="userSpaceOnUse" x1="438" x2="363.321" y1="316.525" y2="316.525"><stop offset="0" stop-color="#026841" stop-opacity="0"/><stop offset="1" stop-color="#006e66"/></linearGradient><linearGradient id="lg3"><stop offset="0" stop-color="#a7b7f1" stop-opacity="0"/><stop offset="1" stop-color="#a7b7f1"/></linearGradient><linearGradient id="SVGID_7_" gradientUnits="userSpaceOnUse" x1="255" x2="255" xlink:href="#lg3" y1="415.769" y2="473.94"/><linearGradient id="SVGID_8_" gradientUnits="userSpaceOnUse" x1="236.361" x2="284.27" xlink:href="#lg1" y1="151.038" y2="286.996"/><linearGradient id="SVGID_9_" gradientUnits="userSpaceOnUse" x1="223.066" x2="254.592" y1="346.29" y2="399.772"><stop offset="0" stop-color="#e6eeff"/><stop offset="1" stop-color="#bac8fa"/></linearGradient><linearGradient id="SVGID_10_" gradientUnits="userSpaceOnUse" x1="319.564" x2="270.868" xlink:href="#lg3" y1="390.446" y2="227.468"/><linearGradient id="SVGID_11_" gradientUnits="userSpaceOnUse" x1="398.976" x2="371.519" xlink:href="#lg3" y1="366.244" y2="366.244"/><linearGradient id="lg4"><stop offset="0" stop-color="#fff"/><stop offset="1" stop-color="#e6eeff"/></linearGradient><linearGradient id="SVGID_12_" gradientUnits="userSpaceOnUse" x1="210.198" x2="228.213" xlink:href="#lg4" y1="295.711" y2="323.296"/><linearGradient id="SVGID_13_" gradientUnits="userSpaceOnUse" x1="281.55" x2="299.283" xlink:href="#lg4" y1="308.19" y2="334.65"/><linearGradient id="lg5"><stop offset="0" stop-color="#ffdfcf"/><stop offset="1" stop-color="#ffa78f"/></linearGradient><linearGradient id="SVGID_14_" gradientUnits="userSpaceOnUse" x1="255" x2="255" xlink:href="#lg5" y1="273.29" y2="329.571"/><linearGradient id="lg6"><stop offset="0" stop-color="#f89580" stop-opacity="0"/><stop offset=".9972" stop-color="#c5715a"/></linearGradient><linearGradient id="SVGID_15_" gradientUnits="userSpaceOnUse" x1="255" x2="255" xlink:href="#lg6" y1="325.956" y2="297.974"/><linearGradient id="SVGID_16_" gradientUnits="userSpaceOnUse" x1="139.685" x2="167.614" xlink:href="#lg5" y1="160.234" y2="188.163"/><linearGradient id="SVGID_17_" gradientUnits="userSpaceOnUse" x1="334.981" x2="374.063" xlink:href="#lg5" y1="154.928" y2="194.01"/><linearGradient id="SVGID_18_" gradientUnits="userSpaceOnUse" x1="154.556" x2="355.44" xlink:href="#lg5" y1="176.963" y2="176.963"/><linearGradient id="SVGID_19_" gradientUnits="userSpaceOnUse" x1="254.998" x2="254.998" xlink:href="#lg6" y1="195.348" y2="234.756"/><linearGradient id="SVGID_20_" gradientUnits="userSpaceOnUse" x1="195.876" x2="225.07" xlink:href="#lg1" y1="178.519" y2="178.519"/><linearGradient id="SVGID_21_" gradientUnits="userSpaceOnUse" x1="284.927" x2="314.12" xlink:href="#lg1" y1="178.519" y2="178.519"/><linearGradient id="SVGID_22_" gradientTransform="matrix(.895 -.446 .446 .895 932.247 -54.615)" gradientUnits="userSpaceOnUse" x1="-629.14" x2="-592.009" xlink:href="#lg1" y1="-155.62" y2="-118.489"/><linearGradient id="SVGID_23_" gradientUnits="userSpaceOnUse" x1="174.001" x2="224.907" xlink:href="#lg1" y1="52.788" y2="103.694"/><linearGradient id="lg7"><stop offset="0" stop-color="#c86d36"/><stop offset="1" stop-color="#883f2e"/></linearGradient><linearGradient id="SVGID_24_" gradientUnits="userSpaceOnUse" x1="346.832" x2="346.832" xlink:href="#lg7" y1="141.022" y2="152.43"/><linearGradient id="SVGID_25_" gradientUnits="userSpaceOnUse" x1="163.165" x2="163.165" xlink:href="#lg7" y1="141.022" y2="152.43"/><linearGradient id="lg8"><stop offset="0" stop-color="#fff"/><stop offset="1" stop-color="#eaf6ff" stop-opacity="0"/></linearGradient><linearGradient id="SVGID_26_" gradientUnits="userSpaceOnUse" x1="179.135" x2="231.917" xlink:href="#lg8" y1="148.959" y2="201.742"/><linearGradient id="SVGID_27_" gradientUnits="userSpaceOnUse" x1="175.968" x2="241.421" xlink:href="#lg7" y1="145.792" y2="211.245"/><linearGradient id="SVGID_28_" gradientUnits="userSpaceOnUse" x1="271.742" x2="324.525" xlink:href="#lg8" y1="148.959" y2="201.742"/><linearGradient id="SVGID_29_" gradientUnits="userSpaceOnUse" x1="268.575" x2="334.028" xlink:href="#lg7" y1="145.792" y2="211.245"/><linearGradient id="SVGID_30_" gradientUnits="userSpaceOnUse" x1="254.998" x2="254.998" xlink:href="#lg3" y1="400.83" y2="433.486"/><linearGradient id="SVGID_31_" gradientUnits="userSpaceOnUse" x1="232.548" x2="261.464" y1="331.101" y2="380.154"><stop offset="0" stop-color="#fee45a"/><stop offset="1" stop-color="#fea613"/></linearGradient><linearGradient id="lg9"><stop offset="0" stop-color="#fe7701" stop-opacity="0"/><stop offset=".1854" stop-color="#f87204" stop-opacity=".185"/><stop offset=".4314" stop-color="#e7630c" stop-opacity=".431"/><stop offset=".7114" stop-color="#cb4b19" stop-opacity=".711"/><stop offset="1" stop-color="#a72b2b"/></linearGradient><linearGradient id="SVGID_32_" gradientUnits="userSpaceOnUse" x1="254.998" x2="254.998" xlink:href="#lg9" y1="490.341" y2="211.112"/><linearGradient id="SVGID_33_" gradientUnits="userSpaceOnUse" x1="254.998" x2="254.998" xlink:href="#lg9" y1="400.689" y2="435.858"/><linearGradient id="SVGID_34_" gradientUnits="userSpaceOnUse" x1="255" x2="255" xlink:href="#lg1" y1="431.848" y2="512.181"/><linearGradient id="SVGID_35_" gradientUnits="userSpaceOnUse" x1="401.325" x2="466.84" y1="38.136" y2="103.65"><stop offset="0" stop-color="#d9b1ee"/><stop offset="1" stop-color="#814aa0"/></linearGradient><linearGradient id="SVGID_36_" gradientUnits="userSpaceOnUse" x1="255" x2="255" xlink:href="#lg1" y1="448" y2="422.632"/><linearGradient id="SVGID_37_" gradientUnits="userSpaceOnUse" x1="255" x2="255" xlink:href="#lg2" y1="474" y2="506.728"/><g><g><path d="m434.739 486.813h-359.478c-22.788 0-41.261-18.473-41.261-41.26v-258.056c0-22.788 18.473-41.261 41.261-41.261h359.479c22.788 0 41.261 18.473 41.261 41.261v258.056c-.001 22.787-18.474 41.26-41.262 41.26z" fill="url(#SVGID_1_)"/><path d="m434.739 146.236h-74.073v340.577h74.073c22.788 0 41.261-18.473 41.261-41.261v-258.055c0-22.788-18.473-41.261-41.261-41.261z" fill="url(#SVGID_2_)"/><path d="m34 361.169v84.383c0 22.788 18.473 41.261 41.261 41.261h359.478c22.788 0 41.261-18.473 41.261-41.261v-84.383z" fill="url(#SVGID_3_)"/><path d="m34 346v99.552c0 22.788 18.473 41.261 41.261 41.261h359.479c22.788 0 41.261-18.473 41.261-41.261v-99.552z" fill="url(#SVGID_4_)"/><path d="m411.756 457.003h-313.512c-19.274 0-34.899-15.625-34.899-34.899v-211.159c0-19.274 15.625-34.899 34.899-34.899h313.512c19.274 0 34.899 15.625 34.899 34.899v211.159c0 19.274-15.625 34.899-34.899 34.899z" fill="url(#SVGID_5_)"/><path d="m411.756 176.046h-51.089v280.957h51.089c19.274 0 34.899-15.625 34.899-34.899v-211.159c0-19.274-15.625-34.899-34.899-34.899z" fill="url(#SVGID_6_)"/><path d="m63.345 365.503v56.601c0 19.274 15.625 34.899 34.899 34.899h313.512c19.274 0 34.899-15.625 34.899-34.899v-56.601z" fill="url(#SVGID_7_)"/></g><g><path d="m401.085 189.377c0-5.068-1.276-9.836-3.523-14.003-5.38-9.975-8.578-21-8.546-32.334.003-.898-.023-1.803-.078-2.714-1.276-21.131-18.437-38.194-39.574-39.35-21.623-1.182-39.919 14.001-43.66 34.284h-101.41c-3.74-20.283-22.036-35.466-43.66-34.284-21.138 1.155-38.299 18.219-39.574 39.35-.055.911-.081 1.816-.078 2.714.031 11.334-3.166 22.358-8.546 32.334-2.248 4.167-3.523 8.936-3.523 14.003 0 8.171 3.317 15.566 8.678 20.913 6.228 6.212 9.426 14.715 9.078 23.504-.016.392-.023.787-.023 1.183 0 4.547 1.028 8.853 2.863 12.699 3.977 8.336 3.853 18.021.275 26.536-1.429 3.401-2.24 7.127-2.291 11.036-.218 16.573 13.579 29.951 30.153 29.951h194.707c16.574 0 30.371-13.378 30.153-29.951-.051-3.909-.862-7.634-2.291-11.036-3.578-8.515-3.702-18.2.275-26.536 1.835-3.847 2.863-8.153 2.863-12.699 0-.396-.008-.79-.023-1.183-.348-8.789 2.851-17.292 9.078-23.504 5.36-5.348 8.677-12.742 8.677-20.913z" fill="url(#SVGID_8_)"/><g><path d="m415.592 430.667h-36.202l-124.39-1.689-124.39 1.689h-36.206c-7.643 0-13.839-6.196-13.839-13.84 0-73.836 59.855-133.691 133.691-133.691h81.484c73.836 0 133.691 59.856 133.691 133.691 0 7.644-6.195 13.84-13.839 13.84z" fill="url(#SVGID_9_)"/><path d="m429.435 416.826c0 3.825-1.545 7.279-4.053 9.787-2.508 2.5-5.97 4.053-9.787 4.053h-36.201l-69.853-.946-24.514-.338-87.983-87.982v-38.844l19.422-19.422h79.276c73.83 0 133.693 59.854 133.693 133.692z" fill="url(#SVGID_10_)"/><path d="m363.931 301.821v128.636l15.459.21h36.202c7.643 0 13.84-6.196 13.84-13.84 0-48.925-26.286-91.704-65.501-115.006z" fill="url(#SVGID_11_)"/><g><circle cx="223.332" cy="315.822" fill="url(#SVGID_12_)" r="36.733"/><circle cx="286.665" cy="315.822" fill="url(#SVGID_13_)" r="36.733"/></g><g><circle cx="255" cy="295.978" fill="url(#SVGID_14_)" r="39.267"/></g><circle cx="255" cy="295.978" fill="url(#SVGID_15_)" r="39.267"/></g><g><g><path d="m129.467 175.246c0-16.421 11.399-30.18 26.716-33.796 4.094-.966 8.008 2.2 8.008 6.406v54.779c0 4.207-3.914 7.373-8.008 6.407-15.316-3.616-26.716-17.375-26.716-33.796z" fill="url(#SVGID_16_)"/><path d="m380.529 175.246c0-16.421-11.399-30.18-26.716-33.796-4.094-.966-8.008 2.2-8.008 6.406v54.779c0 4.207 3.914 7.373 8.008 6.407 15.317-3.616 26.716-17.375 26.716-33.796z" fill="url(#SVGID_17_)"/></g><g><g><g><path d="m254.998 303.16c-55.473 0-100.442-44.969-100.442-100.442v-51.509c0-55.473 44.97-100.442 100.442-100.442 55.473 0 100.442 44.97 100.442 100.442v51.509c0 55.472-44.969 100.442-100.442 100.442z" fill="url(#SVGID_18_)"/><path d="m260.547 227.98h-11.098c-9.249 0-16.251-8.358-14.631-17.464l6.362-35.762h27.636l6.362 35.762c1.62 9.106-5.382 17.464-14.631 17.464z" fill="url(#SVGID_19_)"/></g></g></g><g><path d="m210.473 196.859c-8.062 0-14.597-6.535-14.597-14.597v-7.486c0-8.062 6.535-14.597 14.597-14.597 8.062 0 14.597 6.535 14.597 14.597v7.486c0 8.061-6.535 14.597-14.597 14.597z" fill="url(#SVGID_20_)"/><path d="m299.523 196.859c-8.062 0-14.597-6.535-14.597-14.597v-7.486c0-8.062 6.535-14.597 14.597-14.597 8.062 0 14.597 6.535 14.597 14.597v7.486c0 8.061-6.535 14.597-14.597 14.597z" fill="url(#SVGID_21_)"/></g></g><path d="m359.376 146.434c-22.18 11.062-50.772-1.246-63.862-27.491s-5.72-56.489 16.46-67.551 50.772 1.246 63.862 27.491 5.72 56.489-16.46 67.551z" fill="url(#SVGID_22_)"/><path d="m247.167 141.338c-.063 0-.127 0-.19 0-10.274-.025-26.378 3.786-33.859 10.827-7.868 7.405-18.464 11.943-30.122 11.943-21.63 0-39.599-15.627-43.263-36.205-27.304 0-55.765-30.57-54.78-65.75.943-33.67 28.348-61.124 62.017-62.124 19.124-.567 36.425 7.261 48.501 20.071 8.926 9.469 22.088 13.439 34.792 10.62 5.398-1.198 11.063-1.836 16.906-1.836 36.744 0 66.531 25.173 66.531 56.226s-29.789 56.228-66.533 56.228z" fill="url(#SVGID_23_)"/><g><path d="m364.143 153.267h-34.623c-3.498 0-6.333-2.836-6.333-6.333 0-3.498 2.835-6.333 6.333-6.333h34.622c3.498 0 6.333 2.836 6.333 6.333.001 3.497-2.834 6.333-6.332 6.333z" fill="url(#SVGID_24_)"/><path d="m180.476 153.267h-34.622c-3.498 0-6.333-2.836-6.333-6.333 0-3.498 2.835-6.333 6.333-6.333h34.622c3.498 0 6.333 2.836 6.333 6.333s-2.835 6.333-6.333 6.333z" fill="url(#SVGID_25_)"/></g><g><g><circle cx="208.694" cy="178.519" fill="url(#SVGID_26_)" r="39.97"/><path d="m208.694 224.823c-25.532 0-46.303-20.772-46.303-46.304s20.771-46.304 46.303-46.304 46.304 20.772 46.304 46.304-20.772 46.304-46.304 46.304zm0-79.941c-18.547 0-33.637 15.089-33.637 33.637s15.089 33.637 33.637 33.637 33.638-15.09 33.638-33.637-15.09-33.637-33.638-33.637z" fill="url(#SVGID_27_)"/></g><g><circle cx="301.302" cy="178.519" fill="url(#SVGID_28_)" r="39.97"/><path d="m301.302 224.823c-25.532 0-46.303-20.772-46.303-46.304s20.771-46.304 46.303-46.304 46.304 20.772 46.304 46.304-20.772 46.304-46.304 46.304zm0-79.941c-18.547 0-33.637 15.089-33.637 33.637s15.089 33.637 33.637 33.637 33.638-15.09 33.638-33.637-15.09-33.637-33.638-33.637z" fill="url(#SVGID_29_)"/></g></g><path d="m80.565 416.827c0 7.643 6.196 13.84 13.839 13.84h36.205l124.391-1.689 124.39 1.689h36.202c7.643 0 13.839-6.196 13.839-13.84 0-10.6-1.239-20.91-3.571-30.798h-341.724c-2.332 9.888-3.571 20.198-3.571 30.798z" fill="url(#SVGID_30_)"/><path d="m373.436 387.073c0-23.613 1.419-48.109 4.043-69.885.581-4.816-1.523-9.591-5.506-12.36-7.235-5.03-14.99-9.363-23.169-12.903-2.155-.933-4.557.604-4.678 2.949-2.784 54.229-41.62 99.16-89.129 99.16s-86.344-44.931-89.129-99.16c-.12-2.345-2.523-3.882-4.678-2.949-8.179 3.54-15.934 7.873-23.169 12.903-3.983 2.769-6.086 7.544-5.506 12.36 2.624 21.775 4.043 46.272 4.043 69.885 0 14.891-.569 29.443-1.642 43.535l120.084-1.63 120.078 1.63c-1.073-14.092-1.642-28.644-1.642-43.535z" fill="url(#SVGID_31_)"/><path d="m364.348 299.911c-4.981-2.984-10.169-5.659-15.544-7.986-2.155-.933-4.557.604-4.678 2.949-2.784 54.229-41.62 99.16-89.129 99.16s-86.344-44.931-89.129-99.16c-.12-2.345-2.523-3.882-4.678-2.949-5.375 2.327-10.562 5.002-15.544 7.986 8.83 63.351 54.423 111.615 109.35 111.615s100.523-48.264 109.352-111.615z" fill="url(#SVGID_32_)"/><path d="m373.436 387.073c0-.347.003-.696.004-1.044h-84.592c-10.439 5.144-21.868 8.005-33.85 8.005s-23.41-2.861-33.85-8.005h-84.592c.001.348.004.697.004 1.044 0 14.891-.569 29.443-1.642 43.535l120.082-1.63 120.078 1.63c-1.073-14.092-1.642-28.644-1.642-43.535z" fill="url(#SVGID_33_)"/></g><path d="m456.351 510h-402.702c-29.629 0-53.649-24.02-53.649-53.649 0-16.113 13.062-29.176 29.176-29.176h451.648c16.113 0 29.176 13.062 29.176 29.176 0 29.629-24.02 53.649-53.649 53.649z" fill="url(#SVGID_34_)"/><path d="m445.525 0c-35.609 0-64.476 27.343-64.476 61.073 0 7.88 1.577 15.41 4.447 22.325 2.579 6.215 2.47 13.222-.066 19.454l-6.949 17.073c-2.097 5.152 3.039 10.289 8.192 8.192l20.702-8.426c5.618-2.286 11.858-2.54 17.638-.703 6.443 2.048 13.34 3.159 20.512 3.159 35.609 0 64.475-27.343 64.475-61.074 0-33.729-28.867-61.073-64.475-61.073z" fill="url(#SVGID_35_)"/><path d="m199.5 427.175v2.833c0 13.803 11.189 24.992 24.992 24.992h61.016c13.803 0 24.992-11.189 24.992-24.992v-2.833z" fill="url(#SVGID_36_)"/><path d="m0 456.351c0 29.629 24.02 53.649 53.649 53.649h402.702c29.629 0 53.649-24.02 53.649-53.649 0-.453-.014-.903-.034-1.351h-509.932c-.02.448-.034.898-.034 1.351z" fill="url(#SVGID_37_)"/></g></svg>