<svg id="color_line" height="512" viewBox="0 0 74 74" width="512" xmlns="http://www.w3.org/2000/svg" data-name="color line"><path d="m47.506 71.793c-.065-1.815-.3-5.781-1.1-7.487-.9-1.9-4.635-3.138-6.9-3.7a4.554 4.554 0 0 1 -2.96 1.5 4.7 4.7 0 0 1 -3.9-1.49c-2.261.574-5.973 1.8-6.87 3.7-.794 1.706-1.031 5.672-1.1 7.487z" fill="#89c5cd"/><path d="m31.443 52.587a4.654 4.654 0 0 1 5.1-4.633 4.743 4.743 0 0 1 4.208 4.768v1.793a4.743 4.743 0 0 1 -4.208 4.767 4.653 4.653 0 0 1 -5.1-4.633z" fill="#89c5cd"/><path d="m70.335 71.793c-.065-1.815-.3-5.781-1.1-7.487-.9-1.9-4.634-3.138-6.9-3.7a4.554 4.554 0 0 1 -2.96 1.5 4.7 4.7 0 0 1 -3.9-1.49c-2.261.574-5.973 1.8-6.869 3.7-.8 1.706-1.031 5.672-1.1 7.487z" fill="#89c5cd"/><path d="m54.272 52.587a4.654 4.654 0 0 1 5.1-4.633 4.743 4.743 0 0 1 4.208 4.768v1.793a4.743 4.743 0 0 1 -4.208 4.767 4.654 4.654 0 0 1 -5.1-4.633z" fill="#89c5cd"/><path d="m47.51 71.79h-22.82c.02-.49.05-1.12.1-1.83h20.05c-.07-1.82-.3-5.78-1.1-7.49a2.359 2.359 0 0 0 -.37-.56 5.973 5.973 0 0 1 3.04 2.4c.79 1.7 1.03 5.67 1.1 7.48z" fill="#6eaaad"/><path d="m40.75 52.72v1.79a4.74 4.74 0 0 1 -4.21 4.77 4.635 4.635 0 0 1 -4.49-2.33 4.545 4.545 0 0 0 2.57.5 4.746 4.746 0 0 0 4.21-4.77v-1.79a4.854 4.854 0 0 0 -.67-2.46 4.82 4.82 0 0 1 2.59 4.29z" fill="#6eaaad"/><path d="m70.34 71.79h-22.82c.02-.49.04-1.12.09-1.83h20.06c-.07-1.82-.3-5.78-1.1-7.49a2.359 2.359 0 0 0 -.37-.56 6.016 6.016 0 0 1 3.04 2.4c.79 1.7 1.03 5.67 1.1 7.48z" fill="#6eaaad"/><path d="m63.58 52.72v1.79a4.74 4.74 0 0 1 -4.21 4.77 4.635 4.635 0 0 1 -4.49-2.33 4.545 4.545 0 0 0 2.57.5 4.754 4.754 0 0 0 4.21-4.77v-1.79a4.864 4.864 0 0 0 -.67-2.47 4.854 4.854 0 0 1 2.59 4.3z" fill="#6eaaad"/><path d="m17.067 34.725 4.321 8.314h45.465a3.171 3.171 0 0 0 3.169-3.169v-31.607a3.163 3.163 0 0 0 -3.169-3.163h-46.617a3.163 3.163 0 0 0 -3.169 3.159z" fill="#eeefee"/><path d="m70.02 8.26v31.61a3.171 3.171 0 0 1 -3.17 3.17h-.08v-31.65a3.162 3.162 0 0 0 -3.17-3.16h-46.53a3.163 3.163 0 0 1 3.17-3.13h46.61a3.162 3.162 0 0 1 3.17 3.16z" fill="#e1e6e9"/><g fill="#323c6b"><path d="m63.492 12.723h-39.892a.5.5 0 0 1 0-1h39.892a.5.5 0 1 1 0 1z"/><path d="m63.492 20.21h-39.892a.5.5 0 0 1 0-1h39.892a.5.5 0 0 1 0 1z"/><path d="m63.492 27.7h-21.531a.5.5 0 0 1 0-1h21.531a.5.5 0 0 1 0 1z"/><path d="m63.492 35.185h-21.531a.5.5 0 0 1 0-1h21.531a.5.5 0 0 1 0 1z"/><path d="m73.062 69.188a.5.5 0 0 1 -.5-.47 15.006 15.006 0 0 0 -1.062-5.479.5.5 0 0 1 .907-.422 15.852 15.852 0 0 1 1.154 5.84.5.5 0 0 1 -.468.53z"/><path d="m73.263 71.646a.5.5 0 0 1 -.5-.475l-.022-.436a.5.5 0 0 1 .467-.531.508.508 0 0 1 .531.467l.023.45a.5.5 0 0 1 -.474.525z"/><path d="m64.091 2.633h-.57a.5.5 0 0 1 0-1h.57a.5.5 0 0 1 0 1z"/><path d="m73.021 8.763a.5.5 0 0 1 -.5-.5c0-3.494-.948-5.659-5.668-5.659a.5.5 0 0 1 0-1c5.876 0 6.668 3.366 6.668 6.659a.5.5 0 0 1 -.5.5z"/><path d="m47.506 72.293h-22.819a.5.5 0 0 1 -.5-.518c.076-2.115.325-5.924 1.142-7.68 1-2.121 4.941-3.4 7.2-3.972a.5.5 0 0 1 .49.146 4.192 4.192 0 0 0 3.481 1.331 4.043 4.043 0 0 0 2.634-1.334.5.5 0 0 1 .492-.149c2.269.567 6.226 1.838 7.233 3.976.819 1.758 1.068 5.567 1.143 7.682a.5.5 0 0 1 -.5.518zm-22.3-1h21.779c-.077-1.669-.322-5.259-1.028-6.776-.582-1.234-2.924-2.482-6.29-3.359a5.017 5.017 0 0 1 -3.074 1.442 5.189 5.189 0 0 1 -4.1-1.431c-3.4.9-5.676 2.112-6.263 3.355-.701 1.51-.945 5.1-1.022 6.769z"/><path d="m36.085 59.8a5.091 5.091 0 0 1 -3.457-1.343 5.169 5.169 0 0 1 -1.685-3.812v-2.058a5.154 5.154 0 0 1 5.643-5.131 5.264 5.264 0 0 1 4.662 5.266v1.793a5.264 5.264 0 0 1 -4.662 5.265q-.252.02-.501.02zm0-11.371a4.107 4.107 0 0 0 -2.785 1.085 4.163 4.163 0 0 0 -1.359 3.073v2.062a4.163 4.163 0 0 0 1.359 3.073 4.106 4.106 0 0 0 3.191 1.062 4.256 4.256 0 0 0 3.755-4.269v-1.793a4.256 4.256 0 0 0 -3.755-4.27c-.134-.013-.268-.019-.402-.019z"/><path d="m70.335 72.293h-22.819a.5.5 0 0 1 -.5-.518c.076-2.115.325-5.924 1.143-7.68 1-2.121 4.94-3.4 7.2-3.972a.5.5 0 0 1 .49.146 4.193 4.193 0 0 0 3.484 1.331 4.04 4.04 0 0 0 2.633-1.334.5.5 0 0 1 .492-.149c2.27.567 6.227 1.838 7.233 3.976.819 1.758 1.068 5.567 1.143 7.682a.5.5 0 0 1 -.5.518zm-22.3-1h21.779c-.077-1.669-.322-5.259-1.028-6.776-.581-1.234-2.924-2.482-6.29-3.359a5.017 5.017 0 0 1 -3.074 1.442 5.192 5.192 0 0 1 -4.1-1.431c-3.4.9-5.675 2.112-6.262 3.355-.702 1.51-.946 5.1-1.023 6.769z"/><path d="m58.915 59.8a5.087 5.087 0 0 1 -3.457-1.343 5.168 5.168 0 0 1 -1.686-3.812v-2.058a5.156 5.156 0 0 1 5.644-5.131 5.263 5.263 0 0 1 4.661 5.266v1.793a5.263 5.263 0 0 1 -4.661 5.265q-.252.02-.501.02zm0-11.371a4.107 4.107 0 0 0 -2.787 1.081 4.17 4.17 0 0 0 -1.359 3.073v2.062a4.168 4.168 0 0 0 1.359 3.073 4.1 4.1 0 0 0 3.192 1.062 4.256 4.256 0 0 0 3.754-4.269v-1.789a4.256 4.256 0 0 0 -3.754-4.27c-.133-.013-.268-.019-.402-.019z"/><path d="m66.853 43.539h-45.465a.5.5 0 0 1 -.444-.269l-4.32-8.314a.506.506 0 0 1 -.057-.231v-26.462a3.668 3.668 0 0 1 3.669-3.663h46.617a3.667 3.667 0 0 1 3.668 3.659v31.612a3.672 3.672 0 0 1 -3.668 3.668zm-45.161-1h45.161a2.671 2.671 0 0 0 2.668-2.668v-31.608a2.667 2.667 0 0 0 -2.668-2.663h-46.617a2.668 2.668 0 0 0 -2.669 2.659v26.341z"/></g><path d="m14.313 54.671v13.583a3.54 3.54 0 0 1 -3.539 3.539 3.539 3.539 0 0 1 -3.539-3.539v-26.571" fill="#fcd462"/><path d="m7.235 41.683v10.425a2.607 2.607 0 0 1 -2.607 2.607 2.607 2.607 0 0 1 -2.606-2.607v-11.379a6 6 0 0 1 6-6h10.727l9.5-9.526a2.494 2.494 0 1 1 3.5 3.556l-10.358 10.51v28.985a3.538 3.538 0 0 1 -3.539 3.539 3.539 3.539 0 0 1 -3.538-3.539v-13.583" fill="#fcd462"/><circle cx="13.816" cy="24.488" fill="#fcd462" r="6.682"/><path d="m31.75 28.76-10.36 10.51v28.98a3.543 3.543 0 0 1 -6.04 2.51l-.05-.05h.05a3.534 3.534 0 0 0 3.54-3.54v-28.98l10.36-10.51a2.521 2.521 0 0 0 .33-3.16 2.5 2.5 0 0 1 2.17 4.24z" fill="#f7be56"/><path d="m20.5 24.49a6.641 6.641 0 0 1 -4 6.11 6.674 6.674 0 0 0 -5.18-10.89 6.518 6.518 0 0 0 -2.69.57 6.682 6.682 0 0 1 11.87 4.21z" fill="#f7be56"/><path d="m10.774 72.293a4.044 4.044 0 0 1 -4.039-4.039v-26.571a.5.5 0 0 1 1 0v26.571a3.039 3.039 0 0 0 6.078 0v-13.583a.5.5 0 1 1 1 0v13.583a4.044 4.044 0 0 1 -4.039 4.039z" fill="#323c6b"/><path d="m17.851 72.293a4.043 4.043 0 0 1 -4.038-4.039v-13.583a.5.5 0 1 1 1 0v13.583a3.039 3.039 0 1 0 6.077 0v-28.985a.5.5 0 0 1 .144-.351l10.358-10.51a2.008 2.008 0 0 0 .6-1.416 1.994 1.994 0 0 0 -1.975-2 1.843 1.843 0 0 0 -1.416.572l-9.5 9.523a.5.5 0 0 1 -.354.146h-10.726a5.507 5.507 0 0 0 -5.5 5.5v11.375a2.107 2.107 0 1 0 4.214 0v-10.425a.5.5 0 0 1 1 0v10.425a3.107 3.107 0 1 1 -6.214 0v-11.379a6.508 6.508 0 0 1 6.5-6.5h10.521l9.358-9.379a2.994 2.994 0 0 1 5.1 2.15 3 3 0 0 1 -.894 2.115l-10.215 10.359v28.78a4.044 4.044 0 0 1 -4.04 4.039z" fill="#323c6b"/><path d="m13.816 31.67a7.183 7.183 0 1 1 7.184-7.182 7.19 7.19 0 0 1 -7.184 7.182zm0-13.365a6.183 6.183 0 1 0 6.184 6.183 6.19 6.19 0 0 0 -6.184-6.183z" fill="#323c6b"/><path d="m10.315 58.479a.624.624 0 0 1 .6.653v.327a.623.623 0 0 1 -.64.634 1.008 1.008 0 0 1 -.154-.017.7.7 0 0 1 -.521-.636v-.327a.7.7 0 0 1 .715-.634z" fill="#fff"/><path d="m10.276 49.17a.654.654 0 0 1 .647.662v7.085a.657.657 0 0 1 -.668.626.643.643 0 0 1 -.146-.026.661.661 0 0 1 -.5-.644v-7.086a.642.642 0 0 1 .667-.617z" fill="#fff"/></svg>