<svg id="Layer_1" enable-background="new 0 0 128 128" height="512" viewBox="0 0 128 128" width="512" xmlns="http://www.w3.org/2000/svg"><g><g fill="#4bb9ec"><path d="m126.3 64v1.8c-.4 15.6-6.7 30.4-17.5 41.6-.8.8-1.6 1.7-2.5 2.4-23.8 22-60.5 22-84.4 0-.9-.8-1.7-1.6-2.5-2.4-10.9-11.2-17.2-26.1-17.6-41.6 0-.6 0-1.2 0-1.8s0-1.2 0-1.8c.4-15.6 6.7-30.4 17.5-41.6.8-.8 1.6-1.7 2.5-2.5 23.8-22 60.5-22 84.4 0 .9.8 1.7 1.6 2.5 2.5 10.9 11.2 17.1 26 17.5 41.6 0 .6.1 1.2.1 1.8z"/><path d="m126.3 64v1.8c-.4 15.6-6.7 30.4-17.5 41.6-.8.8-1.6 1.7-2.5 2.4-23.8 22-60.5 22-84.4 0-.9-.8-1.7-1.6-2.5-2.4-10.9-11.2-17.2-26.1-17.6-41.6 0-.6 0-1.2 0-1.8s0-1.2 0-1.8c.4-15.6 6.7-30.4 17.5-41.6.8-.8 1.6-1.7 2.5-2.5 23.8-22 60.5-22 84.4 0 .9.8 1.7 1.6 2.5 2.5 10.9 11.2 17.1 26 17.5 41.6 0 .6.1 1.2.1 1.8z"/><path d="m126.3 64v1.8c-.4 15.6-6.7 30.4-17.5 41.6-.8.8-1.6 1.7-2.5 2.4-9.3 8.6-21.1 14.2-33.6 15.9-5.7.8-11.4.8-17.1 0-12.6-1.7-24.3-7.3-33.6-15.9-.9-.8-1.7-1.6-2.5-2.4-11-11.2-17.3-26.1-17.7-41.6 0-.6 0-1.2 0-1.8s0-1.2 0-1.8c.4-15.6 6.7-30.4 17.5-41.6.8-.8 1.6-1.7 2.5-2.5 9.3-8.5 21.1-14 33.7-15.8 5.7-.8 11.4-.8 17.1 0 12.6 1.7 24.3 7.3 33.6 15.9.9.8 1.7 1.6 2.5 2.5 10.9 11.2 17.1 26 17.5 41.6 0 .5.1 1.1.1 1.7z"/></g><path d="m19.9 47h88.2v34h-88.2z" fill="#f4f5ef"/></g><g><path d="m108.9 18.5c-25.2-24.9-65.7-24.6-90.5.6s-24.5 65.7.7 90.5c24.8 24.5 64.6 24.6 89.6.2s0 0 0 0c2.8-2.8 5.4-5.8 7.7-9 .6-.8.4-1.9-.4-2.4s-1.9-.4-2.4.4c-1.9 2.6-3.9 5.1-6.2 7.4-4.7-4.4-10.1-8-16-10.8 1.1-4.1 2-8.3 2.6-12.5h14.1c1 0 1.8-.8 1.8-1.8v-15.3h14.6c-.2 8-2 16-5.4 23.3-.4.9 0 1.9.9 2.3s1.9 0 2.3-.8c11.1-24.6 5.7-53.3-13.4-72.1zm-4 .9c-4.3 4-9.2 7.3-14.5 9.9-3.4-11.2-8.5-19.7-14.5-24.6 10.9 2.2 20.9 7.3 29 14.7zm-40.9-15.9c9.4 0 18.1 10.6 23.2 27.3-7.4 3-15.2 4.6-23.2 4.6s-15.8-1.6-23.2-4.6c5.1-16.7 13.8-27.3 23.2-27.3zm-26.4 25.8c-5.3-2.6-10.1-5.9-14.5-9.9 8.1-7.4 18.1-12.5 29-14.7-6 4.9-11.1 13.4-14.5 24.6zm-17-7.4c4.7 4.4 10.1 8 16 10.8-1.1 4.1-2 8.3-2.6 12.5h-14.1c-1 0-1.7.8-1.8 1.7v15.3h-14.6c.5-15.1 6.6-29.5 17.1-40.3zm-17.1 43.9h14.6v15.2c0 1 .8 1.8 1.8 1.8h14.1c.6 4.2 1.5 8.4 2.6 12.5-5.8 2.8-11.2 6.4-16 10.8-10.5-10.8-16.6-25.2-17.1-40.3zm19.6 42.8c4.3-4 9.2-7.3 14.4-9.8 3.5 11.1 8.5 19.7 14.5 24.6-10.8-2.3-20.8-7.4-28.9-14.8zm40.9 15.9c-9.4 0-18.1-10.6-23.2-27.3 14.9-6.1 31.5-6.1 46.4 0-5.1 16.7-13.8 27.3-23.2 27.3zm40.9-15.9c-8.1 7.4-18.1 12.5-28.9 14.7 5.9-4.9 11-13.4 14.4-24.6 5.3 2.6 10.2 5.9 14.5 9.9zm-16.7-14.7c-15.5-6.3-32.8-6.3-48.3 0-1-3.7-1.7-7.4-2.3-11.1h52.9c-.6 3.7-1.4 7.4-2.3 11.1zm18.1-14.6h-84.6v-30.6h22c1 0 1.8-.8 1.8-1.8s-.8-1.8-1.8-1.8h-6.1c.6-3.7 1.3-7.4 2.3-11.1 7.7 3.1 15.9 4.7 24.2 4.7s16.5-1.6 24.2-4.7c1 3.7 1.7 7.4 2.3 11.1h-15.8c-1 0-1.8.8-1.8 1.8s.8 1.8 1.8 1.8h31.6v30.6zm1.8-34.1h-14.1c-.6-4.2-1.5-8.4-2.6-12.5 5.8-2.8 11.2-6.4 16-10.8 10.6 10.8 16.7 25.2 17.1 40.4h-14.6v-15.3c-.1-1-.8-1.8-1.8-1.8z"/><path d="m57.6 48.7h3.1c1 0 1.8-.8 1.8-1.8s-.8-1.8-1.8-1.8h-3.1c-1 0-1.8.8-1.8 1.8s.9 1.8 1.8 1.8z"/><path d="m57.6 70.4c.7 1.5 2.8 1.3 3.3-.2l3.1-7.3 3.1 7.5c.6 1.5 2.9 1.4 3.3-.2l4.7-11.2c.3-1-.1-2-1.1-2.3-.8-.3-1.8.1-2.2.9l-3.1 7.6-3.1-7.4c-.5-1.5-2.7-1.6-3.3-.1l-3.1 7.6-3.1-7.5c-.4-.9-1.4-1.3-2.3-1-.9.4-1.3 1.4-1 2.3z"/><path d="m84.6 70.4c.7 1.5 2.8 1.4 3.3-.2l3.1-7.3 3.1 7.5c.6 1.5 2.9 1.4 3.3-.2l4.7-11.2c.3-.9-.2-1.9-1.1-2.2-.8-.3-1.8.1-2.2.9l-3.1 7.6-3.1-7.4c-.5-1.5-2.7-1.6-3.3-.1l-3.1 7.6-3.1-7.5c-.4-.9-1.4-1.3-2.3-.9s-1.3 1.4-.9 2.3z"/><path d="m34 70.2 3.1-7.3 3.1 7.6c.7 1.5 2.8 1.3 3.3-.2l4.7-11.2c.3-.9-.1-1.9-1-2.2s-1.8.1-2.2.9l-3.1 7.6-3.1-7.4c-.5-1.5-2.6-1.6-3.3-.1l-3.1 7.6-3.1-7.5c-.4-.9-1.4-1.3-2.3-1s-1.3 1.4-1 2.3l4.8 11.4c.5 1.2 2.7 1.1 3.2-.5z"/></g></svg>