<svg id="Layer_1" enable-background="new 0 0 256 256" height="512" viewBox="0 0 256 256" width="512" xmlns="http://www.w3.org/2000/svg"><path d="m242.312 214.6h-228.624c-5.35 0-9.688-4.338-9.688-9.689v-171.429c0-5.351 4.338-9.688 9.688-9.688h228.624c5.351 0 9.688 4.338 9.688 9.688v171.429c0 5.351-4.338 9.689-9.688 9.689z" fill="#526faa"/><path d="m14 204.911v-171.429c0-5.351 4.338-9.688 9.688-9.688h-10c-5.35 0-9.688 4.337-9.688 9.688v171.429c0 5.351 4.338 9.688 9.688 9.688h10c-5.35.001-9.688-4.337-9.688-9.688z" fill="#708dc8"/><path d="m242 33.482v171.429c0 5.351-4.338 9.688-9.688 9.688h10c5.351 0 9.688-4.337 9.688-9.688v-171.429c0-5.351-4.338-9.688-9.688-9.688h-10c5.35 0 9.688 4.337 9.688 9.688z" fill="#34518c"/><g fill="#690589"><path d="m242.312 216.6h-228.624c-6.445 0-11.688-5.244-11.688-11.689v-171.429c0-6.445 5.243-11.688 11.688-11.688h228.624c6.445 0 11.688 5.243 11.688 11.688v171.429c0 6.445-5.243 11.689-11.688 11.689zm-228.624-190.806c-4.239 0-7.688 3.449-7.688 7.688v171.429c0 4.239 3.449 7.688 7.688 7.688h228.624c4.239 0 7.688-3.449 7.688-7.688v-171.429c0-4.239-3.449-7.688-7.688-7.688z"/><path d="m14 67.717c-1.104 0-2-.896-2-2v-12c0-1.104.896-2 2-2s2 .896 2 2v12c0 1.104-.896 2-2 2z"/><path d="m112.484 147.101c-.812 0-1.574-.497-1.875-1.303l-9.658-25.902c-.386-1.034.14-2.187 1.175-2.572 1.039-.387 2.187.141 2.573 1.176l9.658 25.902c.386 1.034-.14 2.187-1.175 2.572-.23.086-.466.127-.698.127z"/></g><path d="m133.776 184.716-14.415-40.31c-1.488-4.161-6.067-6.327-10.228-4.84-4.16 1.488-6.326 6.066-4.839 10.227l16.843 47.098c1.16 3.242 4.22 5.308 7.529 5.308.629 0 1.266-.074 1.901-.229l31.694-7.737v37.974h89.739v-40.207c0-8.026-6.506-14.533-14.532-14.533h-70.57z" fill="#f4efed"/><path d="m237.468 177.467h-8c8.026 0 14.532 6.506 14.532 14.533v40.206h8v-40.206c0-8.026-6.506-14.533-14.532-14.533z" fill="#d6d1cf"/><path d="m252 234.206h-89.738c-1.104 0-2-.896-2-2v-35.427l-29.22 7.133c-.778.189-1.578.286-2.375.286-4.21 0-7.993-2.666-9.413-6.634l-16.843-47.098c-1.856-5.192.857-10.927 6.048-12.783 5.195-1.857 10.928.858 12.785 6.049l13.823 38.653 31.402-6.872c.141-.03.284-.046.428-.046h70.57c9.116 0 16.532 7.416 16.532 16.532v40.206c.001 1.106-.895 2.001-1.999 2.001zm-87.738-4h85.738v-38.206c0-6.91-5.622-12.532-12.532-12.532h-70.354l-32.91 7.202c-.982.216-1.972-.333-2.311-1.28l-14.415-40.31c-1.113-3.115-4.552-4.741-7.671-3.631-3.115 1.114-4.743 4.556-3.629 7.671l16.843 47.097c.852 2.382 3.121 3.981 5.646 3.981.479 0 .958-.058 1.427-.173l31.694-7.736c.596-.145 1.226-.009 1.709.37.483.38.765.959.765 1.573z" fill="#690589"/><path d="m236.314 234.206c-1.104 0-2-.896-2-2v-28.606c0-1.104.896-2 2-2s2 .896 2 2v28.606c0 1.105-.895 2-2 2z" fill="#690589"/><path d="m188.585 159.229h22.56v21.688c0 6.23-5.05 11.28-11.28 11.28-6.23 0-11.28-5.05-11.28-11.28z" fill="#ff9f70"/><path d="m199.865 194.197c-7.322 0-13.28-5.957-13.28-13.28v-21.688c0-1.104.896-2 2-2h22.56c1.104 0 2 .896 2 2v21.688c0 7.323-5.957 13.28-13.28 13.28zm-9.28-32.968v19.688c0 5.117 4.163 9.28 9.28 9.28s9.28-4.163 9.28-9.28v-19.688z" fill="#690589"/><path d="m199.865 173.783c-12.569 0-22.758-10.321-22.758-23.053v-15.96c0-12.732 10.189-23.053 22.758-23.053 12.569 0 22.757 10.321 22.757 23.053v15.96c0 12.732-10.188 23.053-22.757 23.053z" fill="#ff9f70"/><path d="m199.865 175.783c-13.651 0-24.758-11.238-24.758-25.053v-15.96c0-13.814 11.106-25.053 24.758-25.053s24.757 11.238 24.757 25.053v15.96c.001 13.815-11.105 25.053-24.757 25.053zm0-62.065c-11.446 0-20.758 9.444-20.758 21.053v15.96c0 11.608 9.312 21.053 20.758 21.053s20.757-9.444 20.757-21.053v-15.96c.001-11.609-9.311-21.053-20.757-21.053z" fill="#690589"/><path d="m39.388 103.068v-41.961c0-2.205 1.707-3.912 3.912-3.912h.071.142 23.043c2.062 0 3.912 1.707 3.912 3.912s-1.849 3.982-3.912 3.982h-19.274v13.016h16.571c2.134 0 3.912 1.849 3.912 3.911 0 2.205-1.778 3.983-3.912 3.983h-16.571v13.086h19.274c2.062 0 3.912 1.778 3.912 3.982 0 2.134-1.849 3.912-3.912 3.912h-23.043c-.142 0-.142-.071-.142-.071l-.071.071c-2.205.001-3.912-1.777-3.912-3.911z" fill="#fff"/><path d="m89.385 103.068c0 2.134-1.778 3.912-3.84 3.912-2.205 0-3.912-1.778-3.912-3.912v-41.321s0 0 0-.071c-.071-1.209.498-2.488 1.564-3.271 1.778-1.209 4.196-.854 5.405.854l22.972 31.791v-29.303c0-2.062 1.707-3.84 3.841-3.84 2.133 0 3.912 1.777 3.912 3.84v41.321c0 2.134-1.778 3.912-3.912 3.912-1.138 0-2.205-.569-2.916-1.423-.143-.142-.285-.284-.356-.427l-22.758-31.576z" fill="#fff"/></svg>