<?xml version="1.0" encoding="UTF-8"?>
<svg xmlns="http://www.w3.org/2000/svg" xmlns:xlink="http://www.w3.org/1999/xlink" width="375pt" height="374.999991pt" viewBox="0 0 375 374.999991" version="1.2">
<defs>
<clipPath id="clip1">
  <path d="M 0 326 L 375 326 L 375 343.96875 L 0 343.96875 Z M 0 326 "/>
</clipPath>
<clipPath id="clip2">
  <path d="M 21 37.5 L 156 37.5 L 156 83 L 21 83 Z M 21 37.5 "/>
</clipPath>
</defs>
<g id="surface1">
<g clip-path="url(#clip1)" clip-rule="nonzero">
<path style=" stroke:none;fill-rule:nonzero;fill:rgb(74.899292%,77.648926%,82.749939%);fill-opacity:1;" d="M 374.941406 335.273438 C 374.941406 340.070312 291.027344 343.957031 187.5 343.957031 C 83.976562 343.957031 0.0585938 340.070312 0.0585938 335.273438 C 0.0585938 330.472656 83.976562 326.582031 187.5 326.582031 C 291.027344 326.582031 374.941406 330.472656 374.941406 335.273438 "/>
</g>
<path style=" stroke:none;fill-rule:nonzero;fill:rgb(16.859436%,18.03894%,40.388489%);fill-opacity:1;" d="M 185.964844 313.566406 C 185.964844 325.585938 176.199219 335.332031 164.152344 335.332031 L 50.730469 335.332031 C 38.683594 335.332031 28.917969 325.585938 28.917969 313.566406 L 28.917969 84.960938 C 28.917969 72.929688 38.683594 63.183594 50.730469 63.183594 L 164.152344 63.183594 C 176.199219 63.183594 185.964844 72.929688 185.964844 84.960938 L 185.964844 313.566406 "/>
<path style=" stroke:none;fill-rule:nonzero;fill:rgb(98.81897%,83.918762%,85.488892%);fill-opacity:1;" d="M 174.746094 96.570312 C 174.746094 86.269531 166.386719 77.910156 156.054688 77.910156 L 58.832031 77.910156 C 48.511719 77.910156 40.144531 86.269531 40.144531 96.570312 L 40.144531 292.523438 C 40.144531 292.820312 40.210938 293.09375 40.21875 293.382812 L 174.660156 293.382812 C 174.660156 293.09375 174.746094 292.820312 174.746094 292.523438 L 174.746094 96.570312 "/>
<path style=" stroke:none;fill-rule:nonzero;fill:rgb(100%,100%,100%);fill-opacity:1;" d="M 121.117188 315.628906 C 121.117188 322.308594 115.691406 327.710938 109.015625 327.710938 C 102.332031 327.710938 96.914062 322.308594 96.914062 315.628906 C 96.914062 308.964844 102.332031 303.5625 109.015625 303.5625 C 115.691406 303.5625 121.117188 308.964844 121.117188 315.628906 "/>
<path style=" stroke:none;fill-rule:nonzero;fill:rgb(43.919373%,33.729553%,69.018555%);fill-opacity:1;" d="M 335.28125 332.699219 L 76.640625 332.699219 L 76.640625 175.167969 L 205.964844 62.867188 L 335.28125 175.167969 L 335.28125 332.699219 "/>
<path style=" stroke:none;fill-rule:nonzero;fill:rgb(43.919373%,33.729553%,69.018555%);fill-opacity:1;" d="M 76.640625 175.167969 L 76.640625 332.699219 L 335.28125 332.699219 L 335.28125 175.167969 L 205.964844 253.933594 L 76.640625 175.167969 "/>
<path style=" stroke:none;fill-rule:nonzero;fill:rgb(85.879517%,87.838745%,92.158508%);fill-opacity:1;" d="M 323.515625 249.507812 C 323.515625 254.921875 319.128906 259.308594 313.703125 259.308594 L 98.226562 259.308594 C 92.800781 259.308594 88.414062 254.921875 88.414062 249.507812 L 88.414062 114.671875 C 88.414062 109.261719 92.800781 104.878906 98.226562 104.878906 L 313.703125 104.878906 C 319.128906 104.878906 323.515625 109.261719 323.515625 114.671875 L 323.515625 249.507812 "/>
<path style=" stroke:none;fill-rule:nonzero;fill:rgb(76.078796%,71.759033%,88.62915%);fill-opacity:1;" d="M 313.703125 104.878906 L 98.226562 104.878906 C 92.800781 104.878906 88.414062 109.261719 88.414062 114.671875 L 88.414062 132.859375 L 323.515625 132.859375 L 323.515625 114.671875 C 323.515625 109.261719 319.128906 104.878906 313.703125 104.878906 "/>
<path style=" stroke:none;fill-rule:nonzero;fill:rgb(97.24884%,98.429871%,99.21875%);fill-opacity:1;" d="M 112.207031 118.953125 C 112.207031 121.632812 110.027344 123.804688 107.339844 123.804688 C 104.648438 123.804688 102.457031 121.632812 102.457031 118.953125 C 102.457031 116.265625 104.648438 114.09375 107.339844 114.09375 C 110.027344 114.09375 112.207031 116.265625 112.207031 118.953125 "/>
<path style=" stroke:none;fill-rule:nonzero;fill:rgb(97.24884%,98.429871%,99.21875%);fill-opacity:1;" d="M 124.523438 118.953125 C 124.523438 121.632812 122.335938 123.804688 119.644531 123.804688 C 116.957031 123.804688 114.777344 121.632812 114.777344 118.953125 C 114.777344 116.265625 116.957031 114.09375 119.644531 114.09375 C 122.335938 114.09375 124.523438 116.265625 124.523438 118.953125 "/>
<path style=" stroke:none;fill-rule:nonzero;fill:rgb(97.24884%,98.429871%,99.21875%);fill-opacity:1;" d="M 136.394531 118.953125 C 136.394531 121.632812 134.222656 123.804688 131.535156 123.804688 C 128.847656 123.804688 126.660156 121.632812 126.660156 118.953125 C 126.660156 116.265625 128.847656 114.09375 131.535156 114.09375 C 134.222656 114.09375 136.394531 116.265625 136.394531 118.953125 "/>
<path style=" stroke:none;fill-rule:nonzero;fill:rgb(100%,100%,100%);fill-opacity:1;" d="M 198.832031 245.414062 L 120.078125 245.414062 L 120.078125 225.554688 L 198.832031 225.554688 L 198.832031 245.414062 "/>
<path style=" stroke:none;fill-rule:nonzero;fill:rgb(100%,100%,100%);fill-opacity:1;" d="M 287.953125 245.410156 L 209.195312 245.410156 L 209.195312 225.550781 L 287.953125 225.550781 L 287.953125 245.410156 "/>
<path style=" stroke:none;fill-rule:nonzero;fill:rgb(100%,100%,100%);fill-opacity:1;" d="M 306.734375 215.3125 L 105.996094 215.3125 L 105.996094 143.4375 L 306.734375 143.4375 L 306.734375 215.3125 "/>
<path style=" stroke:none;fill-rule:nonzero;fill:rgb(55.288696%,43.528748%,74.899292%);fill-opacity:1;" d="M 76.640625 175.167969 L 205.964844 253.933594 L 335.28125 175.167969 L 335.28125 332.699219 L 76.640625 332.699219 L 76.640625 175.167969 "/>
<path style=" stroke:none;fill-rule:nonzero;fill:rgb(45.878601%,34.509277%,69.799805%);fill-opacity:1;" d="M 40.679688 76.75 C 40.679688 76.75 55.992188 105.140625 82.230469 106.253906 C 82.230469 106.253906 64.972656 91.5 80.5625 76.75 L 40.679688 76.75 "/>
<g clip-path="url(#clip2)" clip-rule="nonzero">
<path style=" stroke:none;fill-rule:nonzero;fill:rgb(45.878601%,34.509277%,69.799805%);fill-opacity:1;" d="M 155.371094 65.601562 C 155.371094 74.828125 147.882812 82.300781 138.636719 82.300781 L 38.195312 82.300781 C 28.957031 82.300781 21.46875 74.828125 21.46875 65.601562 L 21.46875 54.191406 C 21.46875 44.964844 28.957031 37.488281 38.195312 37.488281 L 138.636719 37.488281 C 147.882812 37.488281 155.371094 44.964844 155.371094 54.191406 L 155.371094 65.601562 "/>
</g>
<path style=" stroke:none;fill-rule:nonzero;fill:rgb(97.24884%,63.919067%,83.529663%);fill-opacity:1;" d="M 59.230469 59.894531 C 59.230469 67.292969 53.222656 73.285156 45.808594 73.285156 C 38.398438 73.285156 32.398438 67.292969 32.398438 59.894531 C 32.398438 52.5 38.398438 46.503906 45.808594 46.503906 C 53.222656 46.503906 59.230469 52.5 59.230469 59.894531 "/>
<path style=" stroke:none;fill-rule:nonzero;fill:rgb(98.429871%,76.858521%,89.408875%);fill-opacity:1;" d="M 55.722656 59.578125 C 55.722656 65.042969 51.28125 69.476562 45.808594 69.476562 C 40.335938 69.476562 35.898438 65.042969 35.898438 59.578125 C 35.898438 54.113281 40.335938 49.683594 45.808594 49.683594 C 51.28125 49.683594 55.722656 54.113281 55.722656 59.578125 "/>
<path style=" stroke:none;fill-rule:nonzero;fill:rgb(97.24884%,96.859741%,98.81897%);fill-opacity:1;" d="M 141.292969 49.683594 L 67.265625 49.683594 L 67.265625 46.503906 L 141.292969 46.503906 L 141.292969 49.683594 "/>
<path style=" stroke:none;fill-rule:nonzero;fill:rgb(97.24884%,96.859741%,98.81897%);fill-opacity:1;" d="M 141.292969 57.617188 L 67.265625 57.617188 L 67.265625 54.4375 L 141.292969 54.4375 L 141.292969 57.617188 "/>
<path style=" stroke:none;fill-rule:nonzero;fill:rgb(97.24884%,96.859741%,98.81897%);fill-opacity:1;" d="M 141.292969 65.550781 L 67.265625 65.550781 L 67.265625 62.371094 L 141.292969 62.371094 L 141.292969 65.550781 "/>
<path style=" stroke:none;fill-rule:nonzero;fill:rgb(97.24884%,96.859741%,98.81897%);fill-opacity:1;" d="M 141.292969 73.488281 L 67.261719 73.488281 L 67.261719 70.308594 L 141.292969 70.308594 L 141.292969 73.488281 "/>
<path style=" stroke:none;fill-rule:nonzero;fill:rgb(95.289612%,34.899902%,64.709473%);fill-opacity:1;" d="M 253.160156 204.183594 C 253.160156 204.183594 268.464844 232.570312 294.710938 233.6875 C 294.710938 233.6875 277.445312 218.933594 293.03125 204.183594 L 253.160156 204.183594 "/>
<path style=" stroke:none;fill-rule:nonzero;fill:rgb(95.289612%,34.899902%,64.709473%);fill-opacity:1;" d="M 367.847656 193.03125 C 367.847656 202.261719 360.359375 209.738281 351.113281 209.738281 L 250.671875 209.738281 C 241.433594 209.738281 233.941406 202.261719 233.941406 193.03125 L 233.941406 181.617188 C 233.941406 172.402344 241.433594 164.921875 250.671875 164.921875 L 351.113281 164.921875 C 360.359375 164.921875 367.847656 172.402344 367.847656 181.617188 L 367.847656 193.03125 "/>
<path style=" stroke:none;fill-rule:nonzero;fill:rgb(97.24884%,63.919067%,83.529663%);fill-opacity:1;" d="M 356.109375 187.328125 C 356.109375 194.730469 350.109375 200.726562 342.695312 200.726562 C 335.28125 200.726562 329.277344 194.730469 329.277344 187.328125 C 329.277344 179.941406 335.28125 173.941406 342.695312 173.941406 C 350.109375 173.941406 356.109375 179.941406 356.109375 187.328125 "/>
<path style=" stroke:none;fill-rule:nonzero;fill:rgb(98.429871%,76.858521%,89.408875%);fill-opacity:1;" d="M 352.609375 187.015625 C 352.609375 192.476562 348.167969 196.90625 342.695312 196.90625 C 337.226562 196.90625 332.785156 192.476562 332.785156 187.015625 C 332.785156 181.550781 337.226562 177.117188 342.695312 177.117188 C 348.167969 177.117188 352.609375 181.550781 352.609375 187.015625 "/>
<path style=" stroke:none;fill-rule:nonzero;fill:rgb(100%,100%,100%);fill-opacity:1;" d="M 319.726562 176.703125 L 245.699219 176.703125 L 245.699219 173.523438 L 319.726562 173.523438 L 319.726562 176.703125 "/>
<path style=" stroke:none;fill-rule:nonzero;fill:rgb(100%,100%,100%);fill-opacity:1;" d="M 319.726562 184.636719 L 245.699219 184.636719 L 245.699219 181.457031 L 319.726562 181.457031 L 319.726562 184.636719 "/>
<path style=" stroke:none;fill-rule:nonzero;fill:rgb(100%,100%,100%);fill-opacity:1;" d="M 319.726562 192.570312 L 245.699219 192.570312 L 245.699219 189.390625 L 319.726562 189.390625 L 319.726562 192.570312 "/>
<path style=" stroke:none;fill-rule:nonzero;fill:rgb(100%,100%,100%);fill-opacity:1;" d="M 319.726562 200.5 L 245.699219 200.5 L 245.699219 197.324219 L 319.726562 197.324219 L 319.726562 200.5 "/>
<path style=" stroke:none;fill-rule:nonzero;fill:rgb(93.728638%,55.688477%,44.709778%);fill-opacity:1;" d="M 168.871094 273.933594 C 170.050781 290.597656 176.238281 316.519531 177.113281 330.550781 C 177.175781 331.519531 177.316406 331.703125 173.753906 332.519531 C 169.640625 333.472656 172.804688 335.433594 179.253906 335.378906 C 185.308594 335.328125 188.019531 309.070312 188.59375 295.175781 C 188.765625 291.269531 187.253906 279.46875 189.316406 268.335938 C 189.566406 272.5 189.929688 277.238281 190.449219 282.429688 C 191.996094 297.628906 210.164062 317.554688 211.53125 330.335938 C 211.632812 331.324219 211.507812 331.707031 208.316406 332.695312 C 205.128906 333.675781 208.214844 335.519531 213.753906 335.375 C 219.292969 335.234375 215.902344 308.757812 213.027344 296.363281 C 210.515625 285.527344 209.03125 275.296875 205.800781 246.65625 C 205.832031 246.652344 205.84375 246.648438 205.84375 246.644531 C 205.84375 246.644531 205.832031 246.648438 205.800781 246.652344 C 205.789062 246.390625 205.75 246.160156 205.726562 245.894531 C 205.160156 235.820312 204.382812 229.371094 209.425781 220.457031 C 216.644531 207.679688 206.476562 203.78125 200.347656 201.261719 C 194.199219 198.734375 177.089844 196.382812 175.265625 206.261719 C 173.738281 214.609375 181.210938 226.902344 176.417969 239.746094 C 176.160156 240.484375 167.488281 254.703125 168.871094 273.933594 "/>
<path style=" stroke:none;fill-rule:nonzero;fill:rgb(93.728638%,55.688477%,44.709778%);fill-opacity:1;" d="M 185.433594 202.34375 C 184.347656 201.101562 181.367188 199.398438 177.9375 202.546875 C 173.332031 206.757812 167.222656 219.089844 158.765625 220.921875 C 150.296875 222.757812 146.359375 218.449219 143.332031 215.898438 C 140.320312 213.34375 140.304688 210.921875 138.386719 209.640625 C 136.472656 208.34375 135.027344 210.679688 138.886719 215.902344 C 140.746094 218.410156 148.371094 231.867188 158.851562 231.542969 C 172.613281 231.113281 190.675781 208.257812 185.433594 202.34375 "/>
<path style=" stroke:none;fill-rule:nonzero;fill:rgb(94.898987%,61.569214%,6.269836%);fill-opacity:1;" d="M 174.769531 243.042969 C 185.792969 251.125 199.964844 248.617188 205.964844 247.339844 C 207.589844 261.753906 217.074219 315.765625 218.183594 323.195312 C 213.347656 324.949219 211.730469 325.328125 210.328125 325.328125 C 184.480469 287.40625 189.566406 272.5 189.316406 268.335938 C 188.4375 273.132812 191.414062 302.199219 186.359375 325.328125 C 184.660156 326.523438 179.542969 328.082031 175.882812 325.328125 C 175.695312 323.847656 168.96875 275.292969 168.871094 273.933594 C 167.855469 259.800781 172.246094 248.402344 174.769531 243.042969 "/>
<path style=" stroke:none;fill-rule:nonzero;fill:rgb(90.589905%,34.899902%,27.059937%);fill-opacity:1;" d="M 210.863281 217.453125 C 210.863281 217.453125 216.71875 200.902344 198.011719 216.359375 C 195.261719 218.628906 196.449219 229.550781 196.449219 229.550781 L 204.21875 233.632812 L 210.863281 217.453125 "/>
<path style=" stroke:none;fill-rule:nonzero;fill:rgb(98.81897%,83.918762%,85.488892%);fill-opacity:1;" d="M 201.648438 201.796875 C 201.648438 201.796875 194.160156 217.601562 183.160156 215.207031 C 179.855469 214.488281 177.261719 209.828125 187.40625 198.578125 L 183.734375 199.390625 C 183.734375 199.390625 173.96875 211.550781 170.820312 228.109375 C 167.667969 244.675781 170.78125 252.238281 170.78125 252.238281 C 170.78125 252.238281 174.132812 255.09375 189.300781 256.453125 C 196.085938 257.058594 201.828125 256.582031 206.835938 255.015625 C 206.835938 255.015625 204.710938 236.027344 205.929688 229.550781 C 205.929688 229.550781 196.9375 229.542969 197.878906 217.539062 C 198.660156 207.625 204.585938 202.941406 204.585938 202.941406 L 201.648438 201.796875 "/>
<path style=" stroke:none;fill-rule:nonzero;fill:rgb(90.589905%,34.899902%,27.059937%);fill-opacity:1;" d="M 198.878906 192.496094 C 198.878906 192.496094 195.347656 197.046875 198.335938 200.554688 C 201.378906 204.15625 185.386719 208.539062 186.414062 205.652344 C 187.726562 201.917969 190.199219 200.085938 189.308594 195.246094 L 198.878906 192.496094 "/>
<path style=" stroke:none;fill-rule:nonzero;fill:rgb(95.289612%,65.098572%,53.329468%);fill-opacity:1;" d="M 192.925781 181.042969 C 188.976562 183.378906 182.429688 196.125 185.1875 199.871094 C 186.398438 201.5 192.878906 201.414062 198.109375 196.34375 C 200.253906 194.269531 203.273438 190.136719 201.820312 184.976562 C 201.167969 182.636719 197.546875 178.316406 192.925781 181.042969 "/>
<path style=" stroke:none;fill-rule:nonzero;fill:rgb(94.119263%,70.199585%,72.938538%);fill-opacity:1;" d="M 195.9375 248.566406 C 196.753906 246.121094 195.527344 244.621094 191.441406 244.070312 C 185.40625 243.277344 176.042969 239.101562 181.078125 240.054688 C 186.125 241.007812 193.074219 241.21875 198.785156 240.054688 C 204.523438 238.890625 205.929688 229.550781 205.929688 229.550781 C 204.710938 236.027344 206.835938 255.015625 206.835938 255.015625 C 201.828125 256.582031 196.085938 257.058594 189.300781 256.453125 C 174.132812 255.09375 170.78125 252.238281 170.78125 252.238281 C 190.859375 255.234375 195.253906 250.605469 195.9375 248.566406 "/>
<path style=" stroke:none;fill-rule:nonzero;fill:rgb(19.219971%,21.179199%,39.219666%);fill-opacity:1;" d="M 189.238281 181.925781 C 188.136719 183.464844 188.25 183.902344 193.207031 185.816406 C 198.128906 187.742188 199.082031 187.601562 198.289062 188.703125 C 195.96875 191.941406 199.765625 192.050781 196.945312 195.902344 C 194.121094 199.75 198.988281 198.109375 201.648438 195.046875 C 202.203125 194.425781 205.113281 191.480469 203.816406 185.617188 C 202.292969 178.769531 193.296875 176.300781 189.238281 181.925781 "/>
<path style=" stroke:none;fill-rule:nonzero;fill:rgb(19.219971%,21.179199%,39.219666%);fill-opacity:1;" d="M 196.945312 195.902344 C 196.945312 195.902344 195.921875 196.96875 193.359375 195.902344 C 190.808594 194.828125 187.320312 191.335938 185.886719 191.484375 C 184.449219 191.621094 182.65625 199.03125 185.25 200.816406 C 187.816406 202.59375 195.625 200.839844 198.21875 197.695312 C 198.777344 197.023438 196.945312 195.902344 196.945312 195.902344 "/>
<path style=" stroke:none;fill-rule:nonzero;fill:rgb(95.289612%,65.098572%,53.329468%);fill-opacity:1;" d="M 189.519531 196.96875 C 189.519531 196.96875 188.878906 194.585938 187.15625 194.085938 C 185.449219 193.589844 185.304688 195.722656 185.511719 196.507812 C 185.730469 197.289062 188.089844 199.257812 189.519531 198.8125 C 190.945312 198.363281 189.835938 197.800781 189.519531 196.96875 "/>
<path style=" stroke:none;fill-rule:nonzero;fill:rgb(19.219971%,21.179199%,39.219666%);fill-opacity:1;" d="M 203.816406 185.617188 C 205.3125 191.085938 202.203125 194.425781 201.648438 195.046875 C 199.679688 197.320312 197.675781 199.050781 194.347656 200.261719 C 194.003906 200.433594 196.449219 198.875 196.140625 197.835938 C 195.757812 196.585938 199.128906 196.890625 198.878906 193.6875 C 198.636719 190.484375 200.773438 190.28125 200.875 187.574219 C 201 184.847656 198.933594 184.914062 193.359375 182.738281 C 191.09375 181.851562 190.855469 180.851562 191.351562 179.960938 C 195.8125 177.15625 202.230469 179.859375 203.816406 185.617188 "/>
<path style=" stroke:none;fill-rule:nonzero;fill:rgb(45.489502%,47.059631%,76.858521%);fill-opacity:1;" d="M 182.648438 332.214844 C 182.648438 332.214844 177.835938 334.316406 174.871094 332.214844 C 174.871094 332.214844 169.453125 333.027344 172.851562 334.472656 C 176.265625 335.921875 182.859375 337.125 182.648438 332.214844 "/>
<path style=" stroke:none;fill-rule:nonzero;fill:rgb(45.489502%,47.059631%,76.858521%);fill-opacity:1;" d="M 216.105469 332.695312 C 216.105469 332.695312 211.285156 334.789062 208.316406 332.695312 C 208.316406 332.695312 202.890625 333.507812 206.308594 334.953125 C 209.722656 336.398438 216.296875 337.601562 216.105469 332.695312 "/>
<path style=" stroke:none;fill-rule:nonzero;fill:rgb(94.898987%,30.979919%,69.018555%);fill-opacity:1;" d="M 182.375 284.59375 L 71.882812 309.644531 L 50.070312 213.761719 L 160.554688 188.710938 L 182.375 284.59375 "/>
<path style=" stroke:none;fill-rule:nonzero;fill:rgb(97.24884%,98.429871%,99.21875%);fill-opacity:1;" d="M 173.730469 278.5 L 79.351562 299.898438 L 68.492188 252.136719 L 162.863281 230.742188 L 173.730469 278.5 "/>
<path style=" stroke:none;fill-rule:nonzero;fill:rgb(97.24884%,98.429871%,99.21875%);fill-opacity:1;" d="M 92.609375 226.953125 C 94.386719 234.777344 89.480469 242.566406 81.632812 244.34375 C 73.800781 246.117188 66.007812 241.21875 64.214844 233.398438 C 62.4375 225.566406 67.347656 217.785156 75.191406 216.003906 C 83.027344 214.226562 90.820312 219.132812 92.609375 226.953125 "/>
<path style=" stroke:none;fill-rule:nonzero;fill:rgb(97.24884%,98.429871%,99.21875%);fill-opacity:1;" d="M 158.710938 212.484375 L 98.601562 226.109375 L 97.667969 222.007812 L 157.773438 208.378906 L 158.710938 212.484375 "/>
<path style=" stroke:none;fill-rule:nonzero;fill:rgb(97.24884%,98.429871%,99.21875%);fill-opacity:1;" d="M 156.824219 204.199219 L 96.714844 217.835938 L 95.789062 213.738281 L 155.882812 200.101562 L 156.824219 204.199219 "/>
<path style=" stroke:none;fill-rule:nonzero;fill:rgb(97.24884%,98.429871%,99.21875%);fill-opacity:1;" d="M 160.589844 220.757812 L 100.484375 234.386719 L 99.554688 230.292969 L 159.65625 216.65625 L 160.589844 220.757812 "/>
<path style=" stroke:none;fill-rule:nonzero;fill:rgb(96.469116%,68.629456%,16.468811%);fill-opacity:1;" d="M 82.316406 295.195312 L 167.871094 275.804688 L 145.761719 246.023438 L 131.730469 271.234375 L 108.722656 248.140625 L 96.503906 274.222656 L 87.367188 269.511719 L 82.316406 295.195312 "/>
<path style=" stroke:none;fill-rule:nonzero;fill:rgb(93.728638%,55.688477%,44.709778%);fill-opacity:1;" d="M 211.957031 208.726562 C 211.957031 208.726562 208.597656 205.382812 204.5 209.121094 C 199.734375 213.476562 196.746094 228.757812 188.625 232.59375 C 180.519531 236.410156 175.523438 232.996094 171.890625 231.125 C 168.242188 229.265625 167.660156 226.824219 165.421875 225.976562 C 163.195312 225.128906 162.28125 227.8125 167.410156 232.183594 C 169.855469 234.273438 180.714844 246.058594 191.21875 243.273438 C 204.988281 239.621094 218.625 213.460938 211.957031 208.726562 "/>
</g>
</svg>
